<svg width="125" height="39" viewBox="0 0 125 39" fill="none" xmlns="http://www.w3.org/2000/svg">
<path fill-rule="evenodd" clip-rule="evenodd" d="M34.9652 26.0619C35.1514 26.4952 35.3377 26.9905 35.524 27.4857C36.0828 28.9095 36.207 30.2714 36.0207 31.6333C35.5861 34.4809 33.7234 36.9571 30.9914 38.0714C29.998 38.5048 28.9425 38.6905 27.8249 38.6905C27.5144 38.6905 27.1419 38.6905 26.8314 38.6286C25.5276 38.5048 24.2237 38.0714 22.9198 37.3286C21.3676 36.4619 19.8153 35.1619 18.0768 33.3048C16.3383 35.1619 14.8482 36.4619 13.2338 37.3286C11.93 38.0714 10.6261 38.4429 9.3222 38.6286C9.16697 38.6286 8.99623 38.644 8.82548 38.6595C8.65473 38.675 8.48399 38.6905 8.32876 38.6905C7.21115 38.6905 6.15563 38.5048 5.1622 38.0714C2.49235 36.9571 0.505479 34.5429 0.0708525 31.6333C-0.115416 30.2095 0.0708525 28.8476 0.567569 27.4857C0.753838 26.9286 0.940106 26.4952 1.12637 26.0619C1.43682 25.381 1.74727 24.7 1.99563 24.081L2.05772 24.019C4.78966 18.2 7.64578 12.319 10.6261 6.5L10.7503 6.25238C11.0607 5.69524 11.3712 5.07619 11.6816 4.45714C11.7652 4.32614 11.8488 4.19284 11.9333 4.05813C12.2881 3.49265 12.6584 2.90233 13.1097 2.35238C14.4135 0.866667 16.152 0 18.0768 0C19.9395 0 21.7401 0.866667 22.9819 2.41429C23.6028 3.09524 24.0374 3.83809 24.41 4.51905C24.7204 5.13809 25.0309 5.75714 25.3413 6.31429L25.4655 6.5619C28.5079 12.381 31.364 18.2619 34.0338 24.081H34.0959C34.3443 24.7 34.6547 25.381 34.9652 26.0619ZM65.5132 9.71905C65.5132 11.1429 64.3956 12.2571 62.9676 12.2571C61.5395 12.2571 60.4219 11.1429 60.4219 9.71905C60.4219 8.29524 61.5395 7.18095 62.9676 7.18095C64.4577 7.24286 65.5132 8.35714 65.5132 9.71905ZM55.1443 14.7952V15.4143C55.1443 15.4143 53.9646 13.8667 51.3568 13.8667C47.1347 13.8667 43.844 17.0857 43.844 21.5429C43.844 25.9381 47.1347 29.219 51.3568 29.219C53.9646 29.219 55.1443 27.6095 55.1443 27.6095V28.2905C55.1443 28.6 55.3926 28.8476 55.7031 28.8476H58.8697V14.2381H55.7031C55.3306 14.2381 55.1443 14.4857 55.1443 14.7952ZM51.9777 25.6905C53.4058 25.6905 54.5855 24.9476 55.1443 24.081V18.881C54.5855 18.0762 53.3437 17.2714 51.9777 17.2714C49.4941 17.2714 47.5694 18.819 47.5694 21.481C47.5694 24.1429 49.4941 25.6905 51.9777 25.6905ZM64.8303 14.2381V28.7857H61.1049V14.2381H64.8303ZM113.012 15.4143C113.012 15.4143 114.254 13.8667 116.799 13.8667C121.021 13.8667 124.312 17.0857 124.312 21.481C124.312 25.8762 121.021 29.1571 116.799 29.1571C114.191 29.1571 113.012 27.5476 113.012 27.5476V28.2286C113.012 28.5381 112.763 28.7857 112.453 28.7857H109.286V7.24286H113.012V15.4143ZM116.178 25.6286C114.75 25.6286 113.633 24.8857 113.012 24.019V18.819C113.571 18.0143 114.812 17.2095 116.178 17.2095C118.662 17.2095 120.587 18.7571 120.587 21.419C120.587 24.0809 118.662 25.6286 116.178 25.6286ZM107.362 28.8476V20.181C107.362 17.7048 106.865 16.3429 105.623 15.2905C104.505 14.3619 103.14 13.8667 101.525 13.8667C100.097 13.8667 98.6691 14.3 97.5515 15.4143V14.7952C97.5515 14.4857 97.3031 14.2381 96.9926 14.2381H94.0123V28.8476H97.7377V18.6952C98.4828 17.8286 99.6625 17.2714 100.78 17.2714C102.829 17.2714 103.636 18.2 103.636 20.6143V28.8476H107.362ZM84.9473 13.8667C82.4016 13.8667 81.1598 15.4143 81.1598 15.4143V7.24286H77.4344V28.7857H80.601C80.9114 28.7857 81.1598 28.5381 81.1598 28.2286V27.5476C81.1598 27.5476 82.3395 29.1571 84.9473 29.1571C89.1694 29.1571 92.4601 25.8762 92.4601 21.481C92.5222 17.0857 89.2314 13.8667 84.9473 13.8667ZM81.1598 24.019C81.7807 24.8857 82.8983 25.6286 84.3264 25.6286C86.81 25.6286 88.7347 24.0809 88.7347 21.419C88.7347 18.7571 86.81 17.2095 84.3264 17.2095C82.9604 17.2095 81.7186 18.0143 81.1598 18.819V24.019ZM74.2679 13.8667C75.3855 13.8667 76.0064 14.0524 76.0064 14.0524V17.519C76.0064 17.519 72.9019 16.4667 70.9771 18.6952V28.8476H67.2517V14.2381H70.4183C70.7288 14.2381 70.9771 14.4857 70.9771 14.7952V15.4143C71.598 14.6095 73.0882 13.8667 74.2679 13.8667ZM18.0147 29.4667C15.9037 26.8048 14.5377 24.3286 14.1031 22.2857C13.9168 21.419 13.8547 20.6143 13.9789 19.9333C14.041 19.3143 14.2894 18.7571 14.5998 18.3238C15.3449 17.2714 16.5867 16.5905 18.0147 16.5905C19.4428 16.5905 20.7467 17.2095 21.4297 18.3238C21.7401 18.819 21.9885 19.3143 22.0506 19.9333C22.1747 20.6143 22.1126 21.419 21.9264 22.2857C21.4917 24.3286 20.1258 26.8048 18.0147 29.4667ZM29.998 35.8429C31.9228 35.1 33.2888 33.3667 33.5371 31.3238C33.6613 30.2714 33.5371 29.3429 33.3509 28.3524C33.2836 28.1513 33.1982 27.9502 33.1044 27.7295C33.025 27.5425 32.9396 27.3414 32.8541 27.1143C32.6989 26.8048 32.5592 26.4798 32.4195 26.1548C32.2798 25.8298 32.1401 25.5048 31.9849 25.1952V25.1333C29.315 19.3762 26.4589 13.4952 23.4786 7.7381L23.3544 7.49048L23.3544 7.49046C23.044 6.87142 22.7335 6.25238 22.4231 5.69524C22.1126 5.07619 21.7401 4.45714 21.3055 3.9619C20.4983 3.03333 19.3807 2.5381 18.201 2.5381C17.0213 2.5381 15.9037 3.03333 15.0965 3.9619C14.6619 4.51905 14.2894 5.07619 13.9789 5.69524L13.9789 5.69525C13.6685 6.31429 13.358 6.93334 13.0476 7.49048L12.9234 7.7381C9.881 13.4952 7.02488 19.3762 4.35503 25.1333L4.29294 25.1952C3.98249 25.8143 3.67205 26.4952 3.42369 27.1143C3.23742 27.5476 3.05115 27.981 2.92697 28.3524C2.49234 29.4667 2.43026 30.3952 2.55443 31.3857C2.80279 33.3667 4.16876 35.1 6.09354 35.9048C6.96279 36.2143 7.95623 36.4 9.01175 36.2762C10.0052 36.1524 10.9986 35.8429 11.992 35.2857C13.358 34.481 14.7861 33.3048 16.4004 31.5095C13.8547 28.3524 12.2404 25.4429 11.6816 22.9048C11.3712 21.7286 11.3091 20.6143 11.4953 19.6238C11.6816 18.6333 11.992 17.7667 12.5509 16.9619C13.7306 15.2905 15.7795 14.2381 18.0147 14.2381C20.25 14.2381 22.2989 15.2286 23.4786 16.9619C24.0374 17.7667 24.3479 18.6333 24.5341 19.6238C24.6583 20.6143 24.5962 21.7286 24.3479 22.9048C23.727 25.4429 22.1747 28.2905 19.6291 31.4476C21.2434 33.2429 22.6094 34.419 24.0374 35.2238C25.0929 35.781 26.0243 36.0905 27.0177 36.2143C28.0732 36.3381 29.0667 36.2143 29.998 35.8429Z" fill="#E74969"/>
</svg>
