<svg width="125" height="32" viewBox="0 0 125 32" fill="none" xmlns="http://www.w3.org/2000/svg">
<path fill-rule="evenodd" clip-rule="evenodd" d="M18.0332 2.39151C18.0332 3.67924 16.91 4.78302 15.5996 4.78302C14.2892 4.78302 13.166 3.67924 13.166 2.39151C13.166 1.10377 14.2892 0 15.5996 0C16.91 0 18.0332 1.10377 18.0332 2.39151ZM15.5994 6.74536C14.1642 6.74536 13.041 7.84913 13.041 9.25951C13.041 10.6699 14.1642 11.7737 15.5994 11.7737C17.0346 11.7737 18.1578 10.6699 18.1578 9.25951C18.1578 7.78781 17.0346 6.74536 15.5994 6.74536ZM12.9785 16.0047C12.9785 14.5943 14.1641 13.4292 15.5993 13.4292C17.0345 13.4292 18.2825 14.5943 18.2201 16.0047C18.2201 17.415 17.0345 18.5801 15.5993 18.5801C14.1641 18.5801 12.9785 17.415 12.9785 16.0047ZM15.5994 20.2358C14.1642 20.2358 13.041 21.3396 13.041 22.75C13.041 24.1604 14.1642 25.2641 15.5994 25.2641C17.0346 25.2641 18.1578 24.1604 18.1578 22.75C18.1578 21.4009 17.0346 20.2358 15.5994 20.2358ZM13.166 29.5565C13.166 28.2688 14.2892 27.165 15.5996 27.165C16.9724 27.165 18.0332 28.2688 18.0332 29.5565C18.0332 30.8443 16.91 31.9481 15.5996 31.9481C14.2892 31.9481 13.166 30.8443 13.166 29.5565ZM22.3391 6.43872C20.7792 6.43872 19.4688 7.72646 19.4688 9.25948C19.4688 10.7925 20.7792 12.0802 22.3391 12.0802C23.8992 12.0802 25.2095 10.7925 25.2095 9.25948C25.2095 7.72646 23.8992 6.43872 22.3391 6.43872ZM19.3438 16.066C19.3438 14.4103 20.7166 13.1226 22.3389 13.1226C23.9613 13.1226 25.3342 14.4103 25.3342 16.066C25.3342 17.7216 23.9613 19.0093 22.3389 19.0093C20.6542 19.0093 19.3438 17.6603 19.3438 16.066ZM22.3391 19.9292C20.7792 19.9292 19.4688 21.2169 19.4688 22.75C19.4688 24.283 20.7792 25.5707 22.3391 25.5707C23.8992 25.5707 25.2095 24.283 25.2095 22.75C25.2095 21.2169 23.8992 19.9292 22.3391 19.9292ZM25.959 16.0046C25.959 14.165 27.519 12.7546 29.2662 12.7546C31.0134 12.7546 32.4486 14.165 32.5734 16.0046C32.5734 17.8443 31.1382 19.2546 29.2662 19.2546C27.3942 19.2546 25.959 17.7216 25.959 16.0046ZM8.79923 7.052C7.61363 7.052 6.61523 8.03313 6.61523 9.19823C6.61523 10.3633 7.61363 11.3445 8.79923 11.3445C9.98483 11.3445 10.9832 10.3633 10.9832 9.19823C10.9832 8.03313 10.0472 7.052 8.79923 7.052ZM6.49023 16.0047C6.49023 14.717 7.48863 13.7358 8.79903 13.7358C10.1094 13.7358 11.1078 14.717 11.1078 16.0047C11.1078 17.2924 10.1094 18.2736 8.79903 18.2736C7.48863 18.2736 6.49023 17.2924 6.49023 16.0047ZM8.79923 20.5425C7.61363 20.5425 6.61523 21.5236 6.61523 22.6887C6.61523 23.8538 7.61363 24.8349 8.79923 24.8349C9.98483 24.8349 10.9832 23.8538 10.9832 22.6887C10.9832 21.5236 10.0472 20.5425 8.79923 20.5425ZM0 16.066C0 14.9623 0.8736 14.1038 1.9968 14.1038C3.12 14.1038 3.9936 14.9623 3.9936 16.066C3.9936 17.1698 3.12 18.0283 1.9968 18.0283C0.8736 18.0283 0 17.1698 0 16.066Z" fill="#2CBFBE"/>
<path d="M57.4075 11.8347C57.1579 11.8347 56.9707 12.08 56.9707 12.264V29.2498C56.9707 29.4951 57.2203 29.6791 57.4075 29.6791H59.4667C59.7163 29.6791 59.9035 29.4338 59.9035 29.2498V12.264C59.9035 12.0187 59.6539 11.8347 59.4667 11.8347H57.4075Z" fill="#2CBFBE"/>
<path d="M58.532 4.66016C57.4088 4.66016 56.5352 5.51865 56.5352 6.62242C56.5352 7.72619 57.4088 8.58468 58.532 8.58468C59.6552 8.58468 60.5288 7.72619 60.5288 6.62242C60.5288 5.51865 59.5928 4.66016 58.532 4.66016Z" fill="#2CBFBE"/>
<path d="M101.712 11.8347C101.463 11.8347 101.275 12.08 101.275 12.264V29.2498C101.275 29.4951 101.525 29.6791 101.712 29.6791H103.771C104.021 29.6791 104.208 29.4338 104.208 29.2498V12.264C104.208 12.0187 103.959 11.8347 103.771 11.8347H101.712Z" fill="#2CBFBE"/>
<path d="M102.712 4.66016C101.588 4.66016 100.715 5.51865 100.715 6.62242C100.715 7.72619 101.588 8.58468 102.712 8.58468C103.835 8.58468 104.708 7.72619 104.708 6.62242C104.708 5.51865 103.835 4.66016 102.712 4.66016Z" fill="#2CBFBE"/>
<path fill-rule="evenodd" clip-rule="evenodd" d="M123.78 27.8212C123.767 27.8805 123.735 27.9519 123.66 28.0234C123.66 28.146 123.53 28.2687 123.27 28.2074L123.369 28.322C123.356 28.3271 123.344 28.3301 123.334 28.3301H123.14L123.14 28.33H122.879V28.1461V27.5942H123.334C123.464 27.5942 123.594 27.5942 123.659 27.7169C123.736 27.7169 123.768 27.7602 123.78 27.8212ZM122.879 28.33H122.815V28.8819H122.555V27.3489H123.14H123.4C123.53 27.3489 123.66 27.4715 123.66 27.4715C123.79 27.4715 123.79 27.5942 123.79 27.5942V27.7168C123.79 27.7424 123.79 27.7787 123.78 27.8212C123.789 27.8627 123.789 27.9124 123.789 27.9622C123.789 28.0848 123.789 28.2074 123.659 28.2074C123.583 28.2074 123.507 28.2495 123.444 28.2844C123.416 28.2997 123.391 28.3136 123.369 28.322L123.855 28.8819H123.595L123.14 28.3301H122.879V28.33Z" fill="#8C98A4"/>
<path fill-rule="evenodd" clip-rule="evenodd" d="M121.742 28.146C121.742 27.4101 122.429 26.7356 123.177 26.7356C123.989 26.7356 124.613 27.3488 124.613 28.146C124.613 28.8818 123.926 29.5564 123.177 29.5564C122.429 29.5564 121.742 28.8818 121.742 28.146ZM121.867 28.1459C121.867 28.8817 122.429 29.4336 123.177 29.4336C123.864 29.4336 124.488 28.8817 124.488 28.1459C124.488 27.41 123.926 26.8582 123.177 26.8582C122.429 26.8582 121.867 27.41 121.867 28.1459Z" fill="#8C98A4"/>
<path d="M74.568 14.594C74.8176 14.594 75.0048 14.3488 75.0048 14.1648V12.1412C75.0048 11.8959 74.7552 11.712 74.568 11.712H70.1376V5.21196C70.1376 4.96668 69.888 4.78271 69.7008 4.78271H67.6416C67.392 4.78271 67.2048 5.028 67.2048 5.21196V11.712H65.0208C64.7712 11.712 64.584 11.9572 64.584 12.1412V14.1648C64.584 14.4101 64.8336 14.594 65.0208 14.594H67.2048V24.4054C67.2048 27.4101 69.264 29.3723 72.2592 29.3723H74.4432C74.6928 29.3723 74.88 29.1271 74.88 28.9431V26.9195C74.88 26.6742 74.6304 26.4903 74.4432 26.4903H72.5712C71.136 26.4903 70.1376 25.5091 70.1376 23.9761V14.5327H74.568V14.594Z" fill="#2CBFBE"/>
<path d="M118.373 14.594C118.622 14.594 118.809 14.3488 118.809 14.1648V12.1412C118.809 11.8959 118.56 11.712 118.373 11.712H113.942V5.21196C113.942 4.96668 113.693 4.78271 113.505 4.78271H111.446C111.197 4.78271 111.009 5.028 111.009 5.21196V11.712H108.825C108.576 11.712 108.389 11.9572 108.389 12.1412V14.1648C108.389 14.4101 108.638 14.594 108.825 14.594H111.009V24.4054C111.009 27.4101 113.069 29.3723 116.064 29.3723H118.248C118.497 29.3723 118.685 29.1271 118.685 28.9431V26.9195C118.685 26.6742 118.435 26.4903 118.248 26.4903H116.251C114.816 26.4903 113.817 25.5091 113.817 23.9761V14.5327H118.31L118.373 14.594Z" fill="#2CBFBE"/>
<path d="M44.3044 14.5941V29.0658C44.3044 29.3111 44.554 29.4951 44.7412 29.4951H46.8004C47.05 29.4951 47.2372 29.2498 47.2372 29.0658V14.5941H52.1044C52.354 14.5941 52.5412 14.3489 52.5412 14.1649V12.1413C52.5412 11.896 52.2916 11.7121 52.1044 11.7121H47.2372V7.91018C47.2372 6.37717 48.3604 5.33471 49.6708 5.33471H52.1044C52.354 5.33471 52.5412 5.08943 52.5412 4.90547V2.88188C52.5412 2.6366 52.2916 2.45264 52.1044 2.45264H49.7956C46.738 2.45264 44.3044 4.96679 44.3044 7.84886V11.7121H42.1204C41.8708 11.7121 41.6836 11.9574 41.6836 12.1413V14.1649C41.6836 14.4102 41.9332 14.5941 42.1204 14.5941H44.3044Z" fill="#2CBFBE"/>
<path fill-rule="evenodd" clip-rule="evenodd" d="M88.3586 11.1603C90.7922 11.1603 93.101 12.1414 94.7234 13.8584C96.3458 15.5754 97.2194 17.9669 97.2194 20.6037C97.2194 27.165 92.6642 30.1084 88.2962 30.1084C83.8658 30.1084 79.373 27.2263 79.373 20.6037V2.75932C79.373 2.57536 79.5602 2.33008 79.8098 2.33008H81.869C82.0562 2.33008 82.3058 2.51404 82.3058 2.75932V13.5518C83.741 12.1414 86.0498 11.1603 88.3586 11.1603ZM82.2441 20.6649C82.2441 23.9149 83.8665 27.3488 88.2969 27.3488C92.7273 27.3488 94.2873 23.9149 94.3497 20.6649C94.3497 16.7403 91.9161 14.0422 88.2969 14.0422C84.6777 14.0422 82.2441 16.679 82.2441 20.6649Z" fill="#2CBFBE"/>
</svg>
