<svg width="83" height="22" viewBox="0 0 83 22" fill="none" xmlns="http://www.w3.org/2000/svg">
<path fill-rule="evenodd" clip-rule="evenodd" d="M11.9193 1.57921C11.9193 2.42956 11.1771 3.15843 10.3112 3.15843C9.44531 3.15843 8.70312 2.42956 8.70312 1.57921C8.70312 0.728868 9.44531 0 10.3112 0C11.1771 0 11.9193 0.728868 11.9193 1.57921ZM10.3136 4.45393C9.36523 4.45393 8.62305 5.1828 8.62305 6.11413C8.62305 7.04546 9.36523 7.77433 10.3136 7.77433C11.2619 7.77433 12.0041 7.04546 12.0041 6.11413C12.0041 5.1423 11.2619 4.45393 10.3136 4.45393ZM8.58398 10.5685C8.58398 9.6372 9.3674 8.86784 10.3157 8.86784C11.2641 8.86784 12.0887 9.6372 12.0475 10.5685C12.0475 11.4999 11.2641 12.2692 10.3157 12.2692C9.3674 12.2692 8.58398 11.4999 8.58398 10.5685ZM10.3136 13.3624C9.36523 13.3624 8.62305 14.0912 8.62305 15.0226C8.62305 15.9539 9.36523 16.6828 10.3136 16.6828C11.2619 16.6828 12.0041 15.9539 12.0041 15.0226C12.0041 14.1317 11.2619 13.3624 10.3136 13.3624ZM8.70312 19.5177C8.70312 18.6673 9.44531 17.9385 10.3112 17.9385C11.2183 17.9385 11.9193 18.6673 11.9193 19.5177C11.9193 20.368 11.1771 21.0969 10.3112 21.0969C9.44531 21.0969 8.70312 20.368 8.70312 19.5177ZM14.7619 4.25168C13.7311 4.25168 12.8652 5.10202 12.8652 6.11434C12.8652 7.12666 13.7311 7.977 14.7619 7.977C15.7927 7.977 16.6586 7.12666 16.6586 6.11434C16.6586 5.10202 15.7927 4.25168 14.7619 4.25168ZM12.7871 10.6092C12.7871 9.51593 13.6942 8.66558 14.7663 8.66558C15.8383 8.66558 16.7454 9.51593 16.7454 10.6092C16.7454 11.7025 15.8383 12.5529 14.7663 12.5529C13.653 12.5529 12.7871 11.662 12.7871 10.6092ZM14.7619 13.1601C13.7311 13.1601 12.8652 14.0104 12.8652 15.0228C12.8652 16.0351 13.7311 16.8854 14.7619 16.8854C15.7927 16.8854 16.6586 16.0351 16.6586 15.0228C16.6586 14.0104 15.7927 13.1601 14.7619 13.1601ZM17.1465 10.5684C17.1465 9.35363 18.1773 8.42229 19.3318 8.42229C20.4863 8.42229 21.4347 9.35363 21.5171 10.5684C21.5171 11.7832 20.5688 12.7145 19.3318 12.7145C18.0948 12.7145 17.1465 11.7022 17.1465 10.5684ZM5.80446 4.65667C5.02105 4.65667 4.36133 5.30455 4.36133 6.07391C4.36133 6.84328 5.02105 7.49116 5.80446 7.49116C6.58788 7.49116 7.2476 6.84328 7.2476 6.07391C7.2476 5.30455 6.62911 4.65667 5.80446 4.65667ZM4.2832 10.5683C4.2832 9.71797 4.94292 9.07009 5.8088 9.07009C6.67469 9.07009 7.33441 9.71797 7.33441 10.5683C7.33441 11.4187 6.67469 12.0666 5.8088 12.0666C4.94292 12.0666 4.2832 11.4187 4.2832 10.5683ZM5.80446 13.5651C5.02105 13.5651 4.36133 14.213 4.36133 14.9823C4.36133 15.7517 5.02105 16.3996 5.80446 16.3996C6.58788 16.3996 7.2476 15.7517 7.2476 14.9823C7.2476 14.213 6.62911 13.5651 5.80446 13.5651ZM0 10.6091C0 9.88028 0.577255 9.31338 1.31944 9.31338C2.06162 9.31338 2.63888 9.88028 2.63888 10.6091C2.63888 11.338 2.06162 11.9049 1.31944 11.9049C0.577255 11.9049 0 11.338 0 10.6091Z" fill="#2CBFBE"/>
<path d="M37.939 7.81543C37.7741 7.81543 37.6504 7.9774 37.6504 8.09888V19.3154C37.6504 19.4773 37.8153 19.5988 37.939 19.5988H39.2997C39.4646 19.5988 39.5883 19.4368 39.5883 19.3154V8.09888C39.5883 7.93691 39.4234 7.81543 39.2997 7.81543H37.939Z" fill="#2CBFBE"/>
<path d="M38.6749 3.07764C37.9327 3.07764 37.3555 3.64453 37.3555 4.3734C37.3555 5.10227 37.9327 5.66917 38.6749 5.66917C39.4171 5.66917 39.9943 5.10227 39.9943 4.3734C39.9943 3.64453 39.3759 3.07764 38.6749 3.07764Z" fill="#2CBFBE"/>
<path d="M67.2085 7.81543C67.0436 7.81543 66.9199 7.9774 66.9199 8.09888V19.3154C66.9199 19.4773 67.0849 19.5988 67.2085 19.5988H68.5692C68.7342 19.5988 68.8578 19.4368 68.8578 19.3154V8.09888C68.8578 7.93691 68.6929 7.81543 68.5692 7.81543H67.2085Z" fill="#2CBFBE"/>
<path d="M67.8702 3.07764C67.128 3.07764 66.5508 3.64453 66.5508 4.3734C66.5508 5.10227 67.128 5.66917 67.8702 5.66917C68.6124 5.66917 69.1897 5.10227 69.1897 4.3734C69.1897 3.64453 68.6124 3.07764 67.8702 3.07764Z" fill="#2CBFBE"/>
<path fill-rule="evenodd" clip-rule="evenodd" d="M81.7773 18.391C81.7664 18.4259 81.7449 18.4656 81.7028 18.5052C81.7028 18.5862 81.6169 18.6671 81.4451 18.6267L81.5088 18.7C81.4978 18.7049 81.488 18.7078 81.4797 18.7078H81.3594L81.3592 18.7076H81.1794V18.5864V18.2222H81.4797C81.5655 18.2222 81.6513 18.2222 81.6942 18.3031C81.753 18.3031 81.7715 18.341 81.7773 18.391ZM81.1794 18.7076H81.1445V19.0719H80.9727V18.0601H81.3592H81.531C81.6169 18.0601 81.7028 18.141 81.7028 18.141C81.7887 18.141 81.7887 18.2219 81.7887 18.2219V18.3029C81.7887 18.3235 81.7887 18.3547 81.7773 18.391C81.78 18.4139 81.78 18.4395 81.78 18.465C81.78 18.5459 81.78 18.6269 81.6942 18.6269C81.644 18.6269 81.5937 18.6547 81.5521 18.6777C81.5363 18.6864 81.5217 18.6945 81.5088 18.7L81.8317 19.0719H81.6599L81.3594 18.7078H81.1794V18.7076Z" fill="#8C98A4"/>
<path fill-rule="evenodd" clip-rule="evenodd" d="M80.4355 18.5861C80.4355 18.1005 80.8891 17.6553 81.3839 17.6553C81.9199 17.6553 82.3322 18.06 82.3322 18.5861C82.3322 19.0718 81.8787 19.517 81.3839 19.517C80.8891 19.517 80.4355 19.0718 80.4355 18.5861ZM80.5134 18.5862C80.5134 19.0719 80.8845 19.4361 81.3793 19.4361C81.8329 19.4361 82.2452 19.0719 82.2452 18.5862C82.2452 18.1006 81.8741 17.7363 81.3793 17.7363C80.8845 17.7363 80.5134 18.1006 80.5134 18.5862Z" fill="#8C98A4"/>
<path d="M49.2652 9.63752C49.4301 9.63752 49.5538 9.47555 49.5538 9.35407V8.01781C49.5538 7.85584 49.3889 7.73437 49.2652 7.73437H46.3377V3.44214C46.3377 3.28017 46.1727 3.15869 46.049 3.15869H44.6884C44.5234 3.15869 44.3997 3.32066 44.3997 3.44214V7.73437H42.9566C42.7917 7.73437 42.668 7.89634 42.668 8.01781V9.35407C42.668 9.51604 42.8329 9.63752 42.9566 9.63752H44.3997V16.1164C44.3997 18.1005 45.7604 19.3963 47.7396 19.3963H49.1827C49.3476 19.3963 49.4713 19.2343 49.4713 19.1128V17.7766C49.4713 17.6146 49.3064 17.4931 49.1827 17.4931H47.9457C46.9974 17.4931 46.3377 16.8452 46.3377 15.8329V9.59703H49.2652V9.63752Z" fill="#2CBFBE"/>
<path d="M78.2183 9.63752C78.3832 9.63752 78.5069 9.47555 78.5069 9.35407V8.01781C78.5069 7.85584 78.342 7.73437 78.2183 7.73437H75.2908V3.44214C75.2908 3.28017 75.1259 3.15869 75.0022 3.15869H73.6415C73.4766 3.15869 73.3529 3.32066 73.3529 3.44214V7.73437H71.9097C71.7448 7.73437 71.6211 7.89634 71.6211 8.01781V9.35407C71.6211 9.51604 71.786 9.63752 71.9097 9.63752H73.3529V16.1164C73.3529 18.1005 74.7135 19.3963 76.6927 19.3963H78.1358C78.3008 19.3963 78.4244 19.2343 78.4244 19.1128V17.7766C78.4244 17.6146 78.2595 17.4931 78.1358 17.4931H76.8164C75.868 17.4931 75.2083 16.8452 75.2083 15.8329V9.59703H78.1771L78.2183 9.63752Z" fill="#2CBFBE"/>
<path d="M29.2669 9.63767V19.1939C29.2669 19.3559 29.4318 19.4774 29.5555 19.4774H30.9162C31.0811 19.4774 31.2048 19.3154 31.2048 19.1939V9.63767H34.421C34.5859 9.63767 34.7096 9.4757 34.7096 9.35422V8.01796C34.7096 7.85599 34.5447 7.73451 34.421 7.73451H31.2048V5.22397C31.2048 4.21165 31.947 3.52327 32.8129 3.52327H34.421C34.5859 3.52327 34.7096 3.3613 34.7096 3.23982V1.90357C34.7096 1.7416 34.5447 1.62012 34.421 1.62012H32.8954C30.875 1.62012 29.2669 3.28032 29.2669 5.18347V7.73451H27.8238C27.6589 7.73451 27.5352 7.89648 27.5352 8.01796V9.35422C27.5352 9.51619 27.7001 9.63767 27.8238 9.63767H29.2669Z" fill="#2CBFBE"/>
<path fill-rule="evenodd" clip-rule="evenodd" d="M58.3828 7.37001C59.9909 7.37001 61.5165 8.01789 62.5885 9.15169C63.6605 10.2855 64.2378 11.8647 64.2378 13.6059C64.2378 17.9386 61.2278 19.8823 58.3416 19.8823C55.414 19.8823 52.4453 17.9791 52.4453 13.6059V1.82251C52.4453 1.70103 52.569 1.53906 52.7339 1.53906H54.0946C54.2183 1.53906 54.3832 1.66054 54.3832 1.82251V8.94922C55.3316 8.01789 56.8572 7.37001 58.3828 7.37001ZM54.334 13.646C54.334 15.7922 55.406 18.0597 58.3335 18.0597C61.261 18.0597 62.2918 15.7922 62.3331 13.646C62.3331 11.0545 60.725 9.27283 58.3335 9.27283C55.9421 9.27283 54.334 11.014 54.334 13.646Z" fill="#2CBFBE"/>
</svg>
