<svg width="157" height="28" viewBox="0 0 157 28" fill="none" xmlns="http://www.w3.org/2000/svg">
<path fill-rule="evenodd" clip-rule="evenodd" d="M48.9862 4.8782C48.9862 5.72811 48.2448 6.4566 47.38 6.4566C46.5151 6.4566 45.7738 5.72811 45.7738 4.8782C45.7738 4.0283 46.5151 3.2998 47.38 3.2998C48.2448 3.2998 48.9862 4.0283 48.9862 4.8782ZM47.38 7.75169C46.4328 7.75169 45.6914 8.48018 45.6914 9.41103C45.6914 10.3419 46.4328 11.0704 47.38 11.0704C48.3272 11.0704 49.0685 10.3419 49.0685 9.41103C49.0685 8.43971 48.3272 7.75169 47.38 7.75169ZM45.6503 13.8629C45.6503 12.9321 46.4328 12.1631 47.38 12.1631C48.3272 12.1631 49.1509 12.9321 49.1097 13.8629C49.1097 14.7938 48.3272 15.5627 47.38 15.5627C46.4328 15.5627 45.6503 14.7938 45.6503 13.8629ZM47.38 16.6555C46.4328 16.6555 45.6914 17.384 45.6914 18.3148C45.6914 19.2457 46.4328 19.9741 47.38 19.9741C48.3272 19.9741 49.0685 19.2457 49.0685 18.3148C49.0685 17.4244 48.3272 16.6555 47.38 16.6555ZM45.7738 22.8072C45.7738 21.9573 46.5151 21.2288 47.38 21.2288C48.286 21.2288 48.9862 21.9573 48.9862 22.8072C48.9862 23.6571 48.2448 24.3856 47.38 24.3856C46.5151 24.3856 45.7738 23.6571 45.7738 22.8072ZM51.8279 7.54933C50.7983 7.54933 49.9334 8.39924 49.9334 9.41103C49.9334 10.4228 50.7983 11.2727 51.8279 11.2727C52.8575 11.2727 53.7223 10.4228 53.7223 9.41103C53.7223 8.39924 52.8575 7.54933 51.8279 7.54933ZM49.851 13.9034C49.851 12.8107 50.7571 11.9607 51.8279 11.9607C52.8986 11.9607 53.8047 12.8107 53.8047 13.9034C53.8047 14.9961 52.8986 15.846 51.8279 15.846C50.7159 15.846 49.851 14.9557 49.851 13.9034ZM51.8279 16.4531C50.7983 16.4531 49.9334 17.303 49.9334 18.3148C49.9334 19.3266 50.7983 20.1765 51.8279 20.1765C52.8575 20.1765 53.7223 19.3266 53.7223 18.3148C53.7223 17.303 52.8575 16.4531 51.8279 16.4531ZM54.2165 13.8629C54.2165 12.6488 55.2461 11.7179 56.3993 11.7179C57.5524 11.7179 58.4997 12.6488 58.582 13.8629C58.582 15.0771 57.6348 16.0079 56.3993 16.0079C55.1638 16.0079 54.2165 14.9961 54.2165 13.8629ZM42.8909 7.95405C42.1084 7.95405 41.4495 8.6016 41.4495 9.37056C41.4495 10.1395 42.1084 10.7871 42.8909 10.7871C43.6734 10.7871 44.3324 10.1395 44.3324 9.37056C44.3324 8.6016 43.7146 7.95405 42.8909 7.95405ZM41.3671 13.8629C41.3671 13.013 42.0261 12.3655 42.8909 12.3655C43.7558 12.3655 44.4147 13.013 44.4147 13.8629C44.4147 14.7128 43.7558 15.3604 42.8909 15.3604C42.0261 15.3604 41.3671 14.7128 41.3671 13.8629ZM42.8909 16.8578C42.1084 16.8578 41.4495 17.5054 41.4495 18.2743C41.4495 19.0433 42.1084 19.6908 42.8909 19.6908C43.6734 19.6908 44.3324 19.0433 44.3324 18.2743C44.3324 17.5054 43.7146 16.8578 42.8909 16.8578ZM37.084 13.9034C37.084 13.1749 37.6606 12.6083 38.4019 12.6083C39.1432 12.6083 39.7198 13.1749 39.7198 13.9034C39.7198 14.6319 39.1432 15.1985 38.4019 15.1985C37.6606 15.1985 37.084 14.6319 37.084 13.9034Z" fill="#2CBFBE"/>
<path d="M74.9738 11.1113C74.8091 11.1113 74.6855 11.2732 74.6855 11.3946V22.6053C74.6855 22.7672 74.8503 22.8886 74.9738 22.8886H76.3329C76.4976 22.8886 76.6212 22.7267 76.6212 22.6053V11.3946C76.6212 11.2327 76.4565 11.1113 76.3329 11.1113H74.9738Z" fill="#2CBFBE"/>
<path d="M75.7163 6.37598C74.975 6.37598 74.3984 6.94258 74.3984 7.67107C74.3984 8.39956 74.975 8.96617 75.7163 8.96617C76.4576 8.96617 77.0342 8.39956 77.0342 7.67107C77.0342 6.94258 76.4165 6.37598 75.7163 6.37598Z" fill="#2CBFBE"/>
<path d="M104.214 11.1113C104.049 11.1113 103.926 11.2732 103.926 11.3946V22.6053C103.926 22.7672 104.091 22.8886 104.214 22.8886H105.573C105.738 22.8886 105.861 22.7267 105.861 22.6053V11.3946C105.861 11.2327 105.697 11.1113 105.573 11.1113H104.214Z" fill="#2CBFBE"/>
<path d="M104.875 6.37598C104.133 6.37598 103.557 6.94258 103.557 7.67107C103.557 8.39956 104.133 8.96617 104.875 8.96617C105.616 8.96617 106.192 8.39956 106.192 7.67107C106.192 6.94258 105.616 6.37598 104.875 6.37598Z" fill="#2CBFBE"/>
<path fill-rule="evenodd" clip-rule="evenodd" d="M118.78 21.6611C118.771 21.7005 118.751 21.7481 118.7 21.7958C118.7 21.8767 118.614 21.9577 118.443 21.9172L118.508 21.9929C118.5 21.9962 118.492 21.9981 118.486 21.9981H118.357L118.657 22.3624H118.829L118.508 21.9929C118.523 21.9874 118.539 21.9782 118.558 21.968C118.599 21.945 118.65 21.9172 118.7 21.9172C118.786 21.9172 118.786 21.8362 118.786 21.7553C118.786 21.722 118.786 21.6887 118.78 21.6611ZM118.185 21.9981V21.8767V21.5125H118.486C118.571 21.5125 118.657 21.5125 118.7 21.5934C118.751 21.5934 118.771 21.6215 118.78 21.6611C118.786 21.6335 118.786 21.6101 118.786 21.5934V21.5125C118.786 21.5125 118.786 21.4315 118.7 21.4315C118.7 21.4315 118.614 21.3506 118.528 21.3506H118.357H117.971V22.3624H118.142V21.9981H118.185Z" fill="#8C98A4"/>
<path fill-rule="evenodd" clip-rule="evenodd" d="M117.436 21.8766C117.436 21.391 117.889 20.9458 118.383 20.9458C118.918 20.9458 119.33 21.3505 119.33 21.8766C119.33 22.3623 118.877 22.8075 118.383 22.8075C117.889 22.8075 117.436 22.3623 117.436 21.8766ZM117.518 21.8766C117.518 22.3623 117.889 22.7266 118.383 22.7266C118.836 22.7266 119.248 22.3623 119.248 21.8766C119.248 21.391 118.877 21.0267 118.383 21.0267C117.889 21.0267 117.518 21.391 117.518 21.8766Z" fill="#8C98A4"/>
<path d="M86.3004 12.9325C86.4651 12.9325 86.5887 12.7706 86.5887 12.6492V11.3136C86.5887 11.1517 86.4239 11.0303 86.3004 11.0303H83.3763V6.74033C83.3763 6.57845 83.2116 6.45703 83.088 6.45703H81.729C81.5642 6.45703 81.4407 6.61892 81.4407 6.74033V11.0303H79.9992C79.8345 11.0303 79.7109 11.1922 79.7109 11.3136V12.6492C79.7109 12.8111 79.8757 12.9325 79.9992 12.9325H81.4407V19.408C81.4407 21.3911 82.7997 22.6862 84.7766 22.6862H86.218C86.3827 22.6862 86.5063 22.5243 86.5063 22.4029V21.0673C86.5063 20.9054 86.3416 20.784 86.218 20.784H84.9825C84.0353 20.784 83.3763 20.1365 83.3763 19.1247V12.892H86.3004V12.9325Z" fill="#2CBFBE"/>
<path d="M115.211 12.9325C115.375 12.9325 115.499 12.7706 115.499 12.6492V11.3136C115.499 11.1517 115.334 11.0303 115.211 11.0303H112.286V6.74033C112.286 6.57845 112.122 6.45703 111.998 6.45703H110.639C110.474 6.45703 110.351 6.61892 110.351 6.74033V11.0303H108.909C108.745 11.0303 108.621 11.1922 108.621 11.3136V12.6492C108.621 12.8111 108.786 12.9325 108.909 12.9325H110.351V19.408C110.351 21.3911 111.71 22.6862 113.687 22.6862H115.128C115.293 22.6862 115.416 22.5243 115.416 22.4029V21.0673C115.416 20.9054 115.252 20.784 115.128 20.784H113.81C112.863 20.784 112.204 20.1365 112.204 19.1247V12.892H115.169L115.211 12.9325Z" fill="#2CBFBE"/>
<path d="M66.3254 12.9323V22.4837C66.3254 22.6455 66.4902 22.767 66.6137 22.767H67.9728C68.1375 22.767 68.2611 22.6051 68.2611 22.4837V12.9323H71.4734C71.6382 12.9323 71.7617 12.7705 71.7617 12.649V11.3135C71.7617 11.1516 71.597 11.0302 71.4734 11.0302H68.2611V8.52093C68.2611 7.50913 69.0024 6.82112 69.8673 6.82112H71.4734C71.6382 6.82112 71.7617 6.65923 71.7617 6.53781V5.20225C71.7617 5.04036 71.597 4.91895 71.4734 4.91895H69.9496C67.9316 4.91895 66.3254 6.57828 66.3254 8.48045V11.0302H64.884C64.7193 11.0302 64.5957 11.1921 64.5957 11.3135V12.649C64.5957 12.8109 64.7604 12.9323 64.884 12.9323H66.3254Z" fill="#2CBFBE"/>
<path fill-rule="evenodd" clip-rule="evenodd" d="M95.4012 10.6658C97.0074 10.6658 98.5312 11.3134 99.602 12.4466C100.673 13.5798 101.249 15.1582 101.249 16.8985C101.249 21.2289 98.2429 23.1716 95.36 23.1716C92.436 23.1716 89.4707 21.2694 89.4707 16.8985V5.12119C89.4707 4.99978 89.5943 4.83789 89.759 4.83789H91.1181C91.2416 4.83789 91.4064 4.95931 91.4064 5.12119V12.2442C92.3536 11.3134 93.8774 10.6658 95.4012 10.6658ZM91.3652 16.9389C91.3652 19.0839 92.436 21.3503 95.36 21.3503C98.2841 21.3503 99.3137 19.0839 99.3549 16.9389C99.3549 14.3487 97.7487 12.568 95.36 12.568C92.9713 12.568 91.3652 14.3083 91.3652 16.9389Z" fill="#2CBFBE"/>
</svg>
