<svg width="125" height="41" viewBox="0 0 125 41" fill="none" xmlns="http://www.w3.org/2000/svg">
<path d="M30.5857 14.4304H16.0365V18.7204H26.3826C25.8653 24.7654 20.8216 27.4304 16.1011 27.4304C10.0228 27.4304 4.72041 22.6204 4.72041 15.9254C4.72041 9.36041 9.76414 4.29041 16.1011 4.29041C21.0155 4.29041 23.8607 7.41041 23.8607 7.41041L26.8352 4.29041C26.8352 4.29041 22.9554 0.000413671 15.9071 0.000413671C6.91896 -0.0645863 0 7.54041 0 15.7954C0 23.8554 6.53098 31.7204 16.1658 31.7204C24.6367 31.7204 30.8444 25.9354 30.8444 17.2904C30.8444 15.4704 30.5857 14.4304 30.5857 14.4304Z" fill="#3780FF"/>
<path fill-rule="evenodd" clip-rule="evenodd" d="M32.2031 21.3854C32.2031 15.9254 36.4709 11.2454 42.4199 11.2454C47.3343 11.2454 52.6367 14.7554 52.7014 21.5154C52.7014 27.4954 48.1749 31.7204 42.5492 31.7204C36.3416 31.7204 32.2031 26.9754 32.2031 21.3854ZM48.1751 21.5153C48.1751 17.7453 45.3946 15.3403 42.4848 15.3403C39.1869 15.3403 36.6651 17.9403 36.7297 21.4503C36.7297 25.0903 39.2516 27.6903 42.4848 27.6903C45.4593 27.6903 48.1751 25.2853 48.1751 21.5153Z" fill="#FA3913"/>
<path fill-rule="evenodd" clip-rule="evenodd" d="M54.4473 21.3854C54.4473 15.9254 58.715 11.2454 64.6641 11.2454C69.5785 11.2454 74.8808 14.7554 74.9455 21.5154C74.9455 27.4954 70.4191 31.7204 64.7934 31.7204C58.5857 31.7204 54.4473 26.9754 54.4473 21.3854ZM70.4193 21.5153C70.4193 17.7453 67.6387 15.3403 64.7289 15.3403C61.4311 15.3403 58.9092 17.9403 58.9739 21.4503C58.9739 25.0903 61.4957 27.6903 64.7289 27.6903C67.7034 27.6903 70.4193 25.2853 70.4193 21.5153Z" fill="#FCBD06"/>
<path fill-rule="evenodd" clip-rule="evenodd" d="M76.6914 21.5153C76.6914 16.1203 80.9592 11.3103 86.4556 11.3103C88.8481 11.3103 90.6587 12.2203 91.8226 13.6503V11.8953H96.0904V30.2903C96.0904 37.5053 91.9519 40.9503 86.5202 40.9503C81.5411 40.9503 78.7606 37.8953 77.4027 34.9703L81.3472 33.3453C81.9291 34.6453 83.481 36.9853 86.5849 36.9853C89.818 36.9853 91.9519 34.8403 91.9519 31.3303V29.3153C90.7233 30.6803 89.2361 31.7853 86.3262 31.7853C81.6705 31.7853 76.6914 27.6253 76.6914 21.5153ZM92.2744 21.5803C92.2744 17.6803 89.4939 15.3403 86.8427 15.3403C83.9975 15.3403 81.217 17.6153 81.1523 21.6453C81.1523 25.3503 83.8682 27.7553 86.778 27.7553C89.5586 27.7553 92.2744 25.6103 92.2744 21.5803Z" fill="#3780FF"/>
<path fill-rule="evenodd" clip-rule="evenodd" d="M105.725 21.4504C105.725 15.3404 110.057 11.2454 115.23 11.2454C119.239 11.2454 122.278 13.9754 123.636 17.0954L124.348 18.7854L110.704 24.5054C111.544 26.0654 112.838 27.6254 115.683 27.6254C118.205 27.6254 119.757 26.2604 120.662 24.8304L124.218 27.2354C122.666 29.3154 119.951 31.7204 115.683 31.7204C110.574 31.7204 105.725 27.8854 105.725 21.4504ZM119.175 17.4204C118.528 16.1854 117.235 15.2104 115.36 15.2104C112.45 15.2104 109.605 18.2654 110.122 21.2554L119.175 17.4204Z" fill="#FA3913"/>
<path d="M99.2578 31.1353H103.72V0.975342H99.2578V31.1353Z" fill="#38B137"/>
</svg>
