<svg width="83" height="28" viewBox="0 0 83 28" fill="none" xmlns="http://www.w3.org/2000/svg">
<path d="M20.2103 9.52901H10.5965V12.3619H17.433C17.0912 16.3537 13.7584 18.1135 10.6393 18.1135C6.62283 18.1135 3.11914 14.9372 3.11914 10.5162C3.11914 6.18108 6.45192 2.83314 10.6393 2.83314C13.8866 2.83314 15.7666 4.89341 15.7666 4.89341L17.7321 2.83314C17.7321 2.83314 15.1684 0.000273165 10.5111 0.000273165C4.57189 -0.0426491 0 4.97925 0 10.4304C0 15.7527 4.31552 20.9463 10.682 20.9463C16.2793 20.9463 20.3812 17.1263 20.3812 11.4176C20.3812 10.2158 20.2103 9.52901 20.2103 9.52901Z" fill="#3780FF"/>
<path fill-rule="evenodd" clip-rule="evenodd" d="M21.2695 14.1214C21.2695 10.5159 24.0896 7.42554 28.0205 7.42554C31.2679 7.42554 34.7716 9.74334 34.8143 14.2073C34.8143 18.1561 31.8233 20.946 28.106 20.946C24.0041 20.946 21.2695 17.8127 21.2695 14.1214ZM31.8215 14.2074C31.8215 11.7179 29.9842 10.1298 28.0614 10.1298C25.8823 10.1298 24.2159 11.8467 24.2586 14.1645C24.2586 16.5681 25.925 18.285 28.0614 18.285C30.0269 18.285 31.8215 16.6969 31.8215 14.2074Z" fill="#FA3913"/>
<path fill-rule="evenodd" clip-rule="evenodd" d="M35.9668 14.1214C35.9668 10.5159 38.7868 7.42554 42.7178 7.42554C45.9651 7.42554 49.4688 9.74334 49.5116 14.2073C49.5116 18.1561 46.5206 20.946 42.8033 20.946C38.7014 20.946 35.9668 17.8127 35.9668 14.1214ZM46.5187 14.2074C46.5187 11.7179 44.6814 10.1298 42.7587 10.1298C40.5795 10.1298 38.9132 11.8467 38.9559 14.1645C38.9559 16.5681 40.6223 18.285 42.7587 18.285C44.7242 18.285 46.5187 16.6969 46.5187 14.2074Z" fill="#FCBD06"/>
<path fill-rule="evenodd" clip-rule="evenodd" d="M50.6523 14.2073C50.6523 10.6448 53.4724 7.46851 57.1043 7.46851C58.6852 7.46851 59.8816 8.06942 60.6507 9.01371V7.85481H63.4707V20.0018C63.4707 24.7662 60.7361 27.0411 57.147 27.0411C53.8569 27.0411 52.0196 25.0237 51.1224 23.0922L53.7288 22.0191C54.1133 22.8776 55.1388 24.4228 57.1897 24.4228C59.3261 24.4228 60.7361 23.0064 60.7361 20.6886V19.358C59.9243 20.2593 58.9416 20.989 57.0188 20.989C53.9424 20.989 50.6523 18.242 50.6523 14.2073ZM60.9508 14.2503C60.9508 11.675 59.1135 10.1298 57.3616 10.1298C55.4816 10.1298 53.6443 11.632 53.6016 14.2932C53.6016 16.7398 55.3961 18.3279 57.3189 18.3279C59.1562 18.3279 60.9508 16.9115 60.9508 14.2503Z" fill="#3780FF"/>
<path fill-rule="evenodd" clip-rule="evenodd" d="M69.8379 14.1643C69.8379 10.1296 72.7007 7.42554 76.1189 7.42554C78.768 7.42554 80.7762 9.22827 81.6735 11.2885L82.1435 12.4045L73.1279 16.1817C73.6834 17.2118 74.538 18.2419 76.418 18.2419C78.0844 18.2419 79.1099 17.3406 79.708 16.3963L82.0581 17.9844C81.0326 19.3579 79.238 20.946 76.418 20.946C73.0425 20.946 69.8379 18.4136 69.8379 14.1643ZM78.7275 11.5031C78.3002 10.6876 77.4456 10.0438 76.2065 10.0438C74.2838 10.0438 72.4037 12.0611 72.7456 14.0356L78.7275 11.5031Z" fill="#FA3913"/>
<path d="M65.5898 20.56H68.5381V0.644043H65.5898V20.56Z" fill="#38B137"/>
</svg>
