<svg width="157" height="28" viewBox="0 0 157 28" fill="none" xmlns="http://www.w3.org/2000/svg">
<path d="M57.2334 9.60952H47.6309V12.4409H54.4594C54.118 16.4306 50.7891 18.1895 47.6736 18.1895C43.6619 18.1895 40.1623 15.0149 40.1623 10.5962C40.1623 6.26332 43.4912 2.91712 47.6736 2.91712C50.9171 2.91712 52.795 4.97632 52.795 4.97632L54.7581 2.91712C54.7581 2.91712 52.1975 0.0857222 47.5456 0.0857222C41.6134 0.0428222 37.0469 5.06212 37.0469 10.5104C37.0469 15.83 41.3573 21.0209 47.7163 21.0209C53.3071 21.0209 57.4041 17.2028 57.4041 11.4971C57.4041 10.2959 57.2334 9.60952 57.2334 9.60952Z" fill="#3780FF"/>
<path fill-rule="evenodd" clip-rule="evenodd" d="M58.2988 14.1997C58.2988 10.5961 61.1156 7.50732 65.0419 7.50732C68.2854 7.50732 71.785 9.82392 71.8277 14.2855C71.8277 18.2323 68.8402 21.0208 65.1273 21.0208C61.0302 21.0208 58.2988 17.8891 58.2988 14.1997ZM68.8402 14.2855C68.8402 11.7973 67.0051 10.21 65.0846 10.21C62.908 10.21 61.2436 11.926 61.2863 14.2426C61.2863 16.645 62.9507 18.361 65.0846 18.361C67.0478 18.361 68.8402 16.7737 68.8402 14.2855Z" fill="#FA3913"/>
<path fill-rule="evenodd" clip-rule="evenodd" d="M72.9805 14.1997C72.9805 10.5961 75.7972 7.50732 79.7235 7.50732C82.9671 7.50732 86.4666 9.82392 86.5093 14.2855C86.5093 18.2323 83.5219 21.0208 79.8089 21.0208C75.7118 21.0208 72.9805 17.8891 72.9805 14.1997ZM83.5219 14.2855C83.5219 11.7973 81.6867 10.21 79.7662 10.21C77.5897 10.21 75.9252 11.926 75.9679 14.2426C75.9679 16.645 77.6323 18.361 79.7662 18.361C81.7294 18.361 83.5219 16.7737 83.5219 14.2855Z" fill="#FCBD06"/>
<path fill-rule="evenodd" clip-rule="evenodd" d="M87.6621 14.2856C87.6621 10.7249 90.4788 7.55029 94.1064 7.55029C95.6855 7.55029 96.8805 8.15089 97.6487 9.09469V7.93639H100.465V20.0771C100.465 24.839 97.7341 27.1127 94.1491 27.1127C90.8629 27.1127 89.0278 25.0964 88.1316 23.1659L90.7349 22.0934C91.119 22.9514 92.1433 24.4958 94.1918 24.4958C96.3257 24.4958 97.7341 23.0801 97.7341 20.7635V19.4336C96.9232 20.3345 95.9416 21.0638 94.0211 21.0638C90.9483 21.0638 87.6621 18.3182 87.6621 14.2856ZM97.9474 14.3285C97.9474 11.7545 96.1123 10.2101 94.3625 10.2101C92.4847 10.2101 90.6495 11.7116 90.6069 14.3714C90.6069 16.8167 92.3993 18.404 94.3198 18.404C96.155 18.404 97.9474 16.9883 97.9474 14.3285Z" fill="#3780FF"/>
<path fill-rule="evenodd" clip-rule="evenodd" d="M106.824 14.2426C106.824 10.21 109.684 7.50732 113.098 7.50732C115.744 7.50732 117.75 9.30912 118.646 11.3683L119.115 12.4837L110.11 16.2589C110.665 17.2885 111.519 18.3181 113.397 18.3181C115.061 18.3181 116.085 17.4172 116.683 16.4734L119.03 18.0607C118.006 19.4335 116.213 21.0208 113.397 21.0208C110.025 21.0208 106.824 18.4897 106.824 14.2426ZM115.701 11.5828C115.274 10.7677 114.421 10.1242 113.183 10.1242C111.263 10.1242 109.385 12.1405 109.726 14.1139L115.701 11.5828Z" fill="#FA3913"/>
<path d="M102.557 20.6348H105.501V0.729248H102.557V20.6348Z" fill="#38B137"/>
</svg>
