<svg width="24" height="24" viewBox="0 0 24 24" fill="none" xmlns="http://www.w3.org/2000/svg">
<path d="M21.9102 18.4971C22.5121 18.4972 23 18.9893 23 19.5967C23 20.2041 22.5121 20.6962 21.9102 20.6963H2.08984C1.48792 20.6962 1 20.2041 1 19.5967C1.00002 18.9893 1.48793 18.4972 2.08984 18.4971H21.9102ZM21.9102 10.748C22.5121 10.7482 23 11.2412 23 11.8486C22.9999 12.4559 22.512 12.9481 21.9102 12.9482H2.08984C1.48801 12.9481 1.00014 12.4559 1 11.8486C1 11.2412 1.48792 10.7482 2.08984 10.748H21.9102ZM21.9102 3C22.512 3.00013 22.9998 3.49236 23 4.09961C23 4.70704 22.5121 5.20006 21.9102 5.2002H2.08984C1.48792 5.20006 1 4.70704 1 4.09961C1.00021 3.49236 1.48805 3.00013 2.08984 3H21.9102Z" fill="#3A4C66"/>
</svg>
