<svg width="40" height="40" viewBox="0 0 40 40" fill="none" xmlns="http://www.w3.org/2000/svg">
<g clip-path="url(#clip0_6001_1761)">
<rect opacity="0.1" width="40" height="40" rx="20" fill="#5A7184"/>
<path d="M26.334 13.3335C26.8652 13.3335 27.334 13.8022 27.334 14.3647V26.3335C27.334 26.896 26.8652 27.3335 26.334 27.3335H14.3027C13.7715 27.3335 13.334 26.896 13.334 26.3335V14.3647C13.334 13.8022 13.7715 13.3335 14.3027 13.3335H26.334ZM17.5527 25.3335V18.6772H15.4902V25.3335H17.5527ZM16.5215 17.7397C17.1777 17.7397 17.709 17.2085 17.709 16.5522C17.709 15.896 17.1777 15.3335 16.5215 15.3335C15.834 15.3335 15.3027 15.896 15.3027 16.5522C15.3027 17.2085 15.834 17.7397 16.5215 17.7397ZM25.334 25.3335V21.6772C25.334 19.896 24.9277 18.4897 22.834 18.4897C21.834 18.4897 21.1465 19.0522 20.8652 19.5835H20.834V18.6772H18.8652V25.3335H20.9277V22.0522C20.9277 21.1772 21.084 20.3335 22.1777 20.3335C23.2402 20.3335 23.2402 21.3335 23.2402 22.0835V25.3335H25.334Z" fill="#5A7184"/>
</g>
<defs>
<clipPath id="clip0_6001_1761">
<rect width="40" height="40" fill="white"/>
</clipPath>
</defs>
</svg>
