<svg width="11" height="11" viewBox="0 0 11 11" fill="none" xmlns="http://www.w3.org/2000/svg">
<path d="M4.45312 0.726562L4.96875 0.210938C5.20312 0 5.55469 0 5.76562 0.210938L10.3359 4.75781C10.5469 4.99219 10.5469 5.34375 10.3359 5.55469L5.76562 10.125C5.55469 10.3359 5.20312 10.3359 4.96875 10.125L4.45312 9.60938C4.24219 9.375 4.24219 9.02344 4.45312 8.78906L7.28906 6.09375H0.5625C0.234375 6.09375 0 5.85938 0 5.53125V4.78125C0 4.47656 0.234375 4.21875 0.5625 4.21875H7.28906L4.45312 1.54688C4.24219 1.3125 4.21875 0.960938 4.45312 0.726562Z" fill="#1565D8"/>
</svg>
