<svg width="40" height="40" viewBox="0 0 40 40" fill="none" xmlns="http://www.w3.org/2000/svg">
<g clip-path="url(#clip0_6001_1756)">
<rect opacity="0.1" width="40" height="40" rx="20" fill="#5A7184"/>
<path d="M20.334 16.7397C22.3027 16.7397 23.9277 18.3647 23.9277 20.3335C23.9277 22.3335 22.3027 23.9272 20.334 23.9272C18.334 23.9272 16.7402 22.3335 16.7402 20.3335C16.7402 18.3647 18.334 16.7397 20.334 16.7397ZM20.334 22.6772C21.6152 22.6772 22.6465 21.646 22.6465 20.3335C22.6465 19.0522 21.6152 18.021 20.334 18.021C19.0215 18.021 17.9902 19.0522 17.9902 20.3335C17.9902 21.646 19.0527 22.6772 20.334 22.6772ZM24.8965 16.6147C24.8965 17.0835 24.5215 17.4585 24.0527 17.4585C23.584 17.4585 23.209 17.0835 23.209 16.6147C23.209 16.146 23.584 15.771 24.0527 15.771C24.5215 15.771 24.8965 16.146 24.8965 16.6147ZM27.2715 17.4585C27.334 18.6147 27.334 22.0835 27.2715 23.2397C27.209 24.3647 26.959 25.3335 26.1465 26.1772C25.334 26.9897 24.334 27.2397 23.209 27.3022C22.0527 27.3647 18.584 27.3647 17.4277 27.3022C16.3027 27.2397 15.334 26.9897 14.4902 26.1772C13.6777 25.3335 13.4277 24.3647 13.3652 23.2397C13.3027 22.0835 13.3027 18.6147 13.3652 17.4585C13.4277 16.3335 13.6777 15.3335 14.4902 14.521C15.334 13.7085 16.3027 13.4585 17.4277 13.396C18.584 13.3335 22.0527 13.3335 23.209 13.396C24.334 13.4585 25.334 13.7085 26.1465 14.521C26.959 15.3335 27.209 16.3335 27.2715 17.4585ZM25.7715 24.4585C26.1465 23.5522 26.0527 21.3647 26.0527 20.3335C26.0527 19.3335 26.1465 17.146 25.7715 16.2085C25.5215 15.6147 25.0527 15.1147 24.459 14.896C23.5215 14.521 21.334 14.6147 20.334 14.6147C19.3027 14.6147 17.1152 14.521 16.209 14.896C15.584 15.146 15.1152 15.6147 14.8652 16.2085C14.4902 17.146 14.584 19.3335 14.584 20.3335C14.584 21.3647 14.4902 23.5522 14.8652 24.4585C15.1152 25.0835 15.584 25.5522 16.209 25.8022C17.1152 26.1772 19.3027 26.0835 20.334 26.0835C21.334 26.0835 23.5215 26.1772 24.459 25.8022C25.0527 25.5522 25.5527 25.0835 25.7715 24.4585Z" fill="#5A7184"/>
</g>
<defs>
<clipPath id="clip0_6001_1756">
<rect width="40" height="40" fill="white"/>
</clipPath>
</defs>
</svg>
