<svg width="42" height="40" viewBox="0 0 42 40" fill="none" xmlns="http://www.w3.org/2000/svg">
<g clip-path="url(#clip0_6001_1751)">
<rect opacity="0.1" width="42" height="40" rx="20" fill="#5A7184"/>
<path d="M27.6777 17.0835C27.6777 17.2397 27.6777 17.3647 27.6777 17.521C27.6777 21.8647 24.3965 26.8335 18.3652 26.8335C16.4902 26.8335 14.7715 26.3022 13.334 25.3647C13.584 25.396 13.834 25.4272 14.1152 25.4272C15.6465 25.4272 17.0527 24.896 18.1777 24.021C16.7402 23.9897 15.5215 23.0522 15.1152 21.7397C15.334 21.771 15.5215 21.8022 15.7402 21.8022C16.0215 21.8022 16.334 21.7397 16.584 21.6772C15.084 21.3647 13.959 20.0522 13.959 18.4585V18.4272C14.3965 18.6772 14.9277 18.8022 15.459 18.8335C14.5527 18.2397 13.9902 17.2397 13.9902 16.1147C13.9902 15.4897 14.1465 14.9272 14.4277 14.4585C16.0527 16.4272 18.4902 17.7397 21.209 17.896C21.1465 17.646 21.1152 17.396 21.1152 17.146C21.1152 15.3335 22.584 13.8647 24.3965 13.8647C25.334 13.8647 26.1777 14.2397 26.8027 14.896C27.5215 14.7397 28.2402 14.4585 28.8652 14.0835C28.6152 14.8647 28.1152 15.4897 27.4277 15.896C28.084 15.8335 28.7402 15.646 29.3027 15.396C28.8652 16.0522 28.3027 16.6147 27.6777 17.0835Z" fill="#5A7184"/>
</g>
<defs>
<clipPath id="clip0_6001_1751">
<rect width="42" height="40" fill="white"/>
</clipPath>
</defs>
</svg>
