<svg width="42" height="40" viewBox="0 0 42 40" fill="none" xmlns="http://www.w3.org/2000/svg">
<g clip-path="url(#clip0_6001_1746)">
<rect opacity="0.1" width="42" height="40" rx="20" fill="#5A7184"/>
<path d="M28.959 20.521C28.959 24.9585 25.9277 28.0835 21.459 28.0835C17.1465 28.0835 13.709 24.646 13.709 20.3335C13.709 16.0522 17.1465 12.5835 21.459 12.5835C23.5215 12.5835 25.3027 13.3647 26.6465 14.6147L24.5215 16.646C21.7715 13.9897 16.6465 15.9897 16.6465 20.3335C16.6465 23.0522 18.8027 25.2397 21.459 25.2397C24.5215 25.2397 25.6777 23.0522 25.834 21.896H21.459V19.2397H28.834C28.8965 19.646 28.959 20.021 28.959 20.521Z" fill="#5A7184"/>
</g>
<defs>
<clipPath id="clip0_6001_1746">
<rect width="42" height="40" fill="white"/>
</clipPath>
</defs>
</svg>
