<svg width="90" height="28" viewBox="0 0 90 28" fill="none" xmlns="http://www.w3.org/2000/svg">
<path d="M45.0762 5.28125C45.3769 5.28129 45.6646 5.38288 45.9395 5.58594C46.2143 5.78906 46.3936 6.04167 46.4766 6.34375L48.5146 12.9688C49.0229 14.5936 49.5387 15.7187 50.0625 16.3438C50.5863 16.9687 51.2063 17.2812 51.9219 17.2812L55.0186 6.34375C55.1015 6.04167 55.265 5.78906 55.5088 5.58594C55.7524 5.38293 56.0245 5.28133 56.3252 5.28125H59.6084C59.8677 5.28125 60.0601 5.36458 60.1846 5.53125C60.309 5.69786 60.3711 5.83596 60.3711 5.94531C60.3711 6.05469 60.3606 6.14583 60.3398 6.21875L56.2637 20.8125C55.5376 23.3958 54.6371 25.2396 53.5635 26.3438C52.4899 27.4478 51.1077 28 49.417 28L48.7676 27.9971C47.417 27.9826 46.4379 27.9208 45.8311 27.8125C45.1309 27.6875 44.692 27.5339 44.5156 27.3516C44.3394 27.1693 44.251 26.9583 44.251 26.7188V25C44.251 24.7188 44.3394 24.487 44.5156 24.3047C44.6919 24.1225 44.9203 24.0313 45.2002 24.0312H45.7764L47.8145 24.2969C49.0525 24.2969 49.9748 23.5244 50.5811 21.9795C50.6337 21.8454 48.3797 22.0225 46.4766 19.6387C44.5734 17.2545 44.4541 16.482 43.6035 13.7529L41.2852 6.20605C41.2541 6.12279 41.2383 6.02626 41.2383 5.91699C41.2383 5.80762 41.3039 5.67481 41.4336 5.51855C41.5632 5.36235 41.7574 5.27899 42.0166 5.26855L45.0762 5.28125ZM69.8154 4.96875C72.2842 4.96875 74.2661 5.52348 75.7598 6.63281C77.2533 7.7422 78 9.45848 78 11.7812V21.4531C78 21.7344 77.9117 21.9635 77.7354 22.1406C77.559 22.3176 77.3308 22.4062 77.0508 22.4062H74.0479C73.7679 22.4062 73.5396 22.315 73.3633 22.1328C73.187 21.9505 73.0986 21.7239 73.0986 21.4531V20.9688C71.4597 22.1458 69.5688 22.7317 67.4268 22.7266C65.285 22.7212 63.524 22.2395 62.1445 21.2812C60.7754 20.3229 60.0908 18.9687 60.0908 17.2188C60.0908 15.4688 60.778 14.125 62.1523 13.1875C63.5267 12.25 65.298 11.7813 67.4658 11.7812H72.6162C72.6162 10.5625 72.3618 9.71354 71.8535 9.23438C71.3452 8.75538 70.456 8.51565 69.1855 8.51562C67.9998 8.51565 67.1435 8.79009 66.6172 9.33887L66.5088 9.46094C65.9951 10.0908 64.3793 9.87655 62.9365 9.59863C61.4944 9.32078 61.3998 8.58539 61.5283 8.20215C62.2527 6.04687 65.0154 4.96879 69.8154 4.96875ZM9.10254 4.96875C11.955 4.96879 14.1799 5.71619 15.7773 7.21094C17.3748 8.70574 18.1738 10.8489 18.1738 13.6406V14.5312C18.1738 14.8125 18.0829 15.0443 17.9014 15.2266C17.7199 15.4088 17.489 15.5 17.209 15.5H5.49219C5.59592 16.7813 5.96227 17.7135 6.58984 18.2969C7.21743 18.8801 8.22111 19.1719 9.60059 19.1719C10.9799 19.1718 11.9234 18.8592 12.4316 18.2344C12.9399 17.6094 13.914 17.7054 15.416 17.916C16.9182 18.1267 17.2576 18.9209 17.209 19.1719C16.7325 21.6328 14.2358 22.7281 9.08691 22.7188C6.22404 22.7188 3.99393 21.9582 2.39648 20.4375C0.79903 18.9167 0 16.7266 0 13.8672C0 11.0078 0.804282 8.8099 2.41211 7.27344C4.01992 5.7371 6.25006 4.96875 9.10254 4.96875ZM25.4707 0C25.7403 0 25.966 0.091263 26.1475 0.273438C26.329 0.45573 26.4199 0.687499 26.4199 0.96875V7.23438C28.2041 5.72395 30.1055 4.96875 32.123 4.96875C34.1403 4.96882 35.7815 5.58614 37.0469 6.82031C38.3124 8.05469 38.9453 9.9427 38.9453 12.4844V21.4531C38.9453 21.724 38.8544 21.9505 38.6729 22.1328C38.4914 22.315 38.2604 22.4062 37.9805 22.4062H34.5107C34.2412 22.4062 34.0154 22.315 33.834 22.1328C33.6525 21.9505 33.5615 21.7239 33.5615 21.4531V12.4844C33.5615 9.99478 32.5711 9.23438 30.5898 9.23438C29.2933 9.23453 27.9032 10.5662 26.4199 12.0557V21.4531C26.4199 21.724 26.329 21.9505 26.1475 22.1328C25.966 22.315 25.7403 22.4062 25.4707 22.4062H21.9854C21.7158 22.4062 21.4901 22.315 21.3086 22.1328C21.1271 21.9505 21.0361 21.7239 21.0361 21.4531V0.96875C21.0361 0.687551 21.1271 0.455715 21.3086 0.273438C21.4901 0.0912092 21.7158 6.4292e-05 21.9854 0H25.4707ZM67.8398 15.3281C67.1138 15.3281 66.5402 15.5052 66.1201 15.8594C65.7001 16.2135 65.4902 16.6719 65.4902 17.2344C65.4902 17.7968 65.7079 18.2604 66.1436 18.625C66.5792 18.9895 67.1965 19.1719 67.9951 19.1719C69.5925 19.1719 71.1329 18.7031 72.6162 17.7656V15.3281H67.8398ZM9.09473 8.51562C6.79709 8.51562 5.58541 9.74478 5.46094 12.2031H12.6963C12.5926 9.74485 11.3922 8.51569 9.09473 8.51562Z" fill="url(#paint0_linear_6001_1734)"/>
<path fill-rule="evenodd" clip-rule="evenodd" d="M86 14C88.2091 14 90 12.2091 90 10C90 7.79086 88.2091 6 86 6C83.7909 6 82 7.79086 82 10C82 12.2091 83.7909 14 86 14Z" fill="#1576D8"/>
<defs>
<linearGradient id="paint0_linear_6001_1734" x1="0" y1="0" x2="0" y2="28" gradientUnits="userSpaceOnUse">
<stop stop-color="#254A72"/>
<stop offset="1" stop-color="#10243E"/>
</linearGradient>
</defs>
</svg>
