<svg width="157" height="28" viewBox="0 0 157 28" fill="none" xmlns="http://www.w3.org/2000/svg">
<path fill-rule="evenodd" clip-rule="evenodd" d="M46.1918 23.5321L46.1917 23.5321L46.1916 23.5321L46.1915 23.5321C45.7175 23.5807 45.2363 23.63 44.7435 23.6906L40.7899 12.2527V24.1774C39.5544 24.299 38.4424 24.4613 37.248 24.6641V2.80225H40.5428L45.0318 15.2136V2.80225H48.5325V23.2445C47.759 23.3714 46.9856 23.4507 46.1919 23.532H46.1919L46.1918 23.5321ZM55.369 10.8331C56.0647 10.8331 56.9439 10.8119 57.8022 10.7911C58.6205 10.7713 59.4198 10.752 60.0228 10.752V14.159C58.499 14.159 56.6869 14.159 55.369 14.2402V19.3102C56.0106 19.2715 56.6563 19.2287 57.3049 19.1857L57.3056 19.1857L57.3057 19.1857C58.6969 19.0935 60.1012 19.0004 61.5054 18.9451V22.2305L51.9096 22.9606V2.80225H61.5054V6.20929H55.369V10.8331ZM70.7718 6.24985H74.3548C74.3548 6.24985 74.3548 2.80225 74.396 2.80225H63.7294V6.24985H67.3124V21.9871C68.4243 21.9466 69.6187 21.9466 70.7718 21.9466V6.24985ZM79.997 10.5898H84.7332V13.9968H79.997V21.7438H76.5788V2.80225H86.257V6.20929H79.997V10.5898ZM95.4906 18.9054C94.2996 18.8364 93.0994 18.767 91.8992 18.7423V2.80225H88.4398V21.9466C91.6109 22.0277 94.6997 22.1899 97.7885 22.3927V19.0262C97.0281 18.9944 96.2613 18.95 95.4907 18.9054L95.4906 18.9054ZM100.713 22.6361C101.098 22.6642 101.488 22.6874 101.882 22.7109L101.882 22.7109C102.624 22.7551 103.377 22.7999 104.131 22.8794V2.80225H100.713V22.6361ZM114.88 13.1856L119.287 2.80225H115.456L113.027 8.52121L110.761 2.80225H107.055L111.091 13.0639L106.643 23.0417C107.137 23.1066 107.631 23.1585 108.126 23.2104C108.867 23.2883 109.608 23.3662 110.35 23.4878L112.903 17.6878L115.374 24.0151C115.836 24.0861 116.292 24.1621 116.747 24.2379C117.591 24.3784 118.43 24.5181 119.287 24.6235L114.88 13.1856Z" fill="#D81F26"/>
</svg>
