<svg width="83" height="22" viewBox="0 0 83 22" fill="none" xmlns="http://www.w3.org/2000/svg">
<path fill-rule="evenodd" clip-rule="evenodd" d="M8.95423 20.7406L8.95419 20.7406L8.95401 20.7406C8.47943 20.7892 7.99763 20.8385 7.50431 20.8992L3.54599 9.45538V21.3862C2.30902 21.5079 1.19574 21.6703 0 21.8732V0H3.2986L7.79294 12.4178V0H11.2977V20.4528C10.5233 20.5799 9.74897 20.6592 8.95438 20.7406L8.95432 20.7406L8.95428 20.7406L8.95423 20.7406ZM18.1432 8.03505C18.8397 8.03505 19.72 8.01378 20.5792 7.99301C21.3985 7.97322 22.1987 7.95388 22.8025 7.95388V11.3627H22.8024C21.2768 11.3627 19.4626 11.3627 18.1432 11.4439V16.5165C18.7858 16.4778 19.4325 16.4349 20.0821 16.3919C21.475 16.2997 22.8809 16.2066 24.2868 16.1513V19.4383L14.6797 20.1688V0H24.2868V3.40881H18.1432V8.03505ZM33.5546 3.44939H37.1418C37.1418 3.44939 37.1418 0 37.1831 0H26.5039V3.44939H30.0911V19.1948C31.2044 19.1542 32.4001 19.1542 33.5546 19.1542V3.44939ZM42.7914 7.79156H47.5331V11.2004H42.7914V18.9513H39.3691V0H49.0587V3.40881H42.7914V7.79156ZM58.3051 16.1115C57.1127 16.0425 55.9111 15.973 54.7095 15.9483V0H51.246V19.1543C54.4209 19.2354 57.5133 19.3977 60.6058 19.6006V16.2324C59.8444 16.2005 59.0767 16.1561 58.3051 16.1115ZM63.5331 19.8441C63.9188 19.8722 64.3095 19.8955 64.7035 19.9189C65.4464 19.9632 66.2009 20.0081 66.9554 20.0876V0H63.5331V19.8441ZM77.7327 10.3887L82.1445 0H78.3099L75.8772 5.72193L73.6094 0H69.8985L73.9393 10.267L69.4862 20.2499C69.981 20.3149 70.4757 20.3668 70.9705 20.4188C71.7127 20.4967 72.4549 20.5746 73.1971 20.6963L75.7535 14.8932L78.2275 21.2239C78.6896 21.2949 79.1466 21.371 79.6021 21.4468C80.4473 21.5874 81.2872 21.7271 82.1445 21.8326L77.7327 10.3887Z" fill="#D81F26"/>
</svg>
