<svg width="125" height="34" viewBox="0 0 125 34" fill="none" xmlns="http://www.w3.org/2000/svg">
<path fill-rule="evenodd" clip-rule="evenodd" d="M17.0976 30.9731C15.9256 31.1655 14.7536 31.2856 13.551 31.4088C12.8327 31.4824 12.1035 31.5572 11.3568 31.6491L5.3664 14.3189V32.3865C3.4944 32.5709 1.8096 32.8167 0 33.124V0H4.992L11.7936 18.8051V0H17.0976V30.9731ZM27.4564 12.168C28.5106 12.168 29.8427 12.1358 31.1431 12.1043L31.1431 12.1043C32.383 12.0744 33.594 12.0451 34.5076 12.0451V17.2073C32.1988 17.2073 29.4532 17.2073 27.4564 17.3302V25.012C28.4289 24.9534 29.4076 24.8885 30.3906 24.8234L30.3908 24.8234L30.3908 24.8234C32.4987 24.6837 34.6264 24.5427 36.754 24.4589V29.4367L22.2148 30.5429V0H36.754V5.16218H27.4564V12.168ZM50.7934 5.22364H56.2222C56.2222 5.22364 56.2222 0 56.2846 0H40.123V5.22364H45.5518V29.068C47.2366 29.0065 49.0462 29.0065 50.7934 29.0065V5.22364ZM64.771 11.7993H71.947V16.9615H64.771V28.6993H59.5918V0H74.2558V5.16218H64.771V11.7993ZM88.2456 24.3987C86.4411 24.2942 84.6226 24.1889 82.8041 24.1516V0H77.5625V29.0065C82.3673 29.1295 87.0473 29.3753 91.7273 29.6825V24.5818C90.5752 24.5335 89.4135 24.4663 88.246 24.3987L88.2459 24.3987L88.2456 24.3987ZM96.1582 30.0513C96.742 30.0939 97.3333 30.1291 97.9295 30.1646C99.0538 30.2315 100.196 30.2995 101.337 30.42V0H96.1582V30.0513ZM117.625 15.7324L124.301 0H118.498L114.817 8.66509L111.385 0H105.769L111.884 15.548L105.145 30.6658C105.893 30.7641 106.642 30.8428 107.391 30.9215C108.514 31.0395 109.637 31.1575 110.761 31.3418L114.629 22.5538L118.373 32.1407C119.073 32.2483 119.764 32.3635 120.454 32.4782C121.733 32.6912 123.004 32.9028 124.301 33.0625L117.625 15.7324Z" fill="#D81F26"/>
</svg>
