<svg width="157" height="28" viewBox="0 0 157 28" fill="none" xmlns="http://www.w3.org/2000/svg">
<path d="M47.9216 2.74565C47.546 1.51486 46.2312 0.852129 45.0104 1.23083C43.7895 1.60954 43.1322 2.935 43.5078 4.16578L49.5181 22.8169C49.9407 23.953 51.1615 24.6158 52.3354 24.2844C53.5562 23.9057 54.3075 22.6276 53.9319 21.3968C53.9319 21.3495 47.9216 2.74565 47.9216 2.74565Z" fill="#FAAD13"/>
<path d="M38.6247 5.82255C38.2491 4.59176 36.9343 3.92903 35.7135 4.30774C34.4927 4.68644 33.8353 6.0119 34.2109 7.24269L40.2212 25.8938C40.6438 27.0299 41.8646 27.6927 43.0385 27.3613C44.2593 26.9826 45.0106 25.7045 44.635 24.4737C44.635 24.4264 38.6247 5.82255 38.6247 5.82255Z" fill="#36B37E"/>
<path d="M55.5295 18.225C56.7504 17.8463 57.4077 16.5209 57.0321 15.2901C56.6564 14.0593 55.3417 13.3966 54.1209 13.7753L35.5735 19.7872C34.4466 20.2132 33.7893 21.444 34.1179 22.6275C34.4936 23.8582 35.7614 24.6157 36.9822 24.2369C37.0761 24.2369 55.5295 18.225 55.5295 18.225Z" fill="#D81F26"/>
<path opacity="0.2" d="M39.4244 23.4795C40.6452 23.1008 42.1947 22.5801 43.8382 22.012C43.4625 20.7812 42.946 19.2191 42.3825 17.5623L37.9688 19.0297L39.4244 23.4795Z" fill="white"/>
<path opacity="0.2" d="M48.7681 20.4028C50.4585 19.8348 52.008 19.3614 53.1819 18.9354C52.8063 17.7046 52.2898 16.1424 51.7263 14.4856L47.3125 15.9531L48.7681 20.4028Z" fill="white"/>
<path d="M52.4787 8.80487C53.6995 8.42616 54.3569 7.1007 53.9812 5.86991C53.6056 4.63913 52.2908 3.9764 51.07 4.3551L32.5696 10.4144C31.4427 10.8404 30.7853 12.0712 31.114 13.2546C31.4897 14.5328 32.7575 15.2902 33.9783 14.8641C34.0253 14.8641 52.4787 8.80487 52.4787 8.80487Z" fill="#00B8D9"/>
<path opacity="0.2" d="M36.4185 14.0593C37.6393 13.6806 39.1889 13.1599 40.8323 12.5919C40.2688 10.8877 39.7993 9.32554 39.3767 8.14209L34.9629 9.60957L36.4185 14.0593Z" fill="white"/>
<path opacity="0.2" d="M45.7173 11.0298C47.4077 10.4617 48.9572 9.98836 50.1311 9.56231C49.5677 7.85815 49.0981 6.296 48.6755 5.11255L44.2617 6.58002L45.7173 11.0298Z" fill="white"/>
<path d="M74.2648 7.66877C75.063 8.04748 75.1569 8.28417 74.4995 9.51495C73.8422 10.7931 73.7013 10.8404 72.8561 10.5091C71.8231 10.083 70.5553 9.75164 69.7101 9.75164C68.3484 9.75164 67.4563 10.225 67.4563 10.9824C67.4563 13.444 75.2978 12.1185 75.2978 17.4204C75.2978 20.0713 73.0439 21.8228 69.6631 21.8228C67.8788 21.8228 65.672 21.2074 64.1694 20.45C63.4181 20.0713 63.3711 19.8346 64.0285 18.5565C64.592 17.4677 64.7798 17.3257 65.578 17.6571C66.8928 18.2251 68.4893 18.6512 69.6162 18.6512C70.884 18.6512 71.6822 18.1305 71.6822 17.3731C71.6822 14.9588 63.6998 16.0949 63.6998 10.9824C63.6998 8.28417 65.9537 6.43799 69.2875 6.43799C70.884 6.58 72.9031 7.05338 74.2648 7.66877Z" fill="#183B56"/>
<path d="M80.6038 1.42022V21.1128C80.6038 21.3968 80.2751 21.7282 79.8525 21.7282H77.7864C77.3169 21.7282 77.0352 21.3968 77.0352 21.1128V1.42022C77.0352 0.426126 77.3169 0.378788 78.8195 0.378788C80.5098 0.33145 80.6038 0.473464 80.6038 1.42022Z" fill="#183B56"/>
<path fill-rule="evenodd" clip-rule="evenodd" d="M95.1607 20.9235V12.45C95.1607 8.75762 92.672 6.58008 88.7278 6.58008C86.9435 6.58008 84.9714 7.14813 83.5627 8.09489C82.8114 8.56827 82.8114 8.80496 83.5627 9.98841C84.361 11.1719 84.5018 11.2192 85.2531 10.7932C86.1922 10.2251 87.3661 9.8464 88.3521 9.8464C90.4182 9.8464 91.639 10.7932 91.639 12.3553V13.3494C90.653 12.9234 89.4321 12.6867 88.1174 12.6867C84.5957 12.6867 82.2949 14.5802 82.2949 17.4205C82.2949 20.0714 84.361 21.8702 87.413 21.8702C89.0095 21.8702 90.606 21.2075 91.686 19.9767L91.639 20.8761C91.5921 21.3495 91.9207 21.6809 92.3903 21.6809H94.4094C94.832 21.6809 95.1607 21.3969 95.1607 20.9235ZM87.8356 19.03C86.5678 19.03 85.7227 18.3672 85.7227 17.3731C85.7227 16.1423 86.9904 15.1956 88.8687 15.1956C89.7608 15.1956 90.7938 15.3376 91.5921 15.669V16.9944C90.7938 18.2725 89.3852 19.03 87.8356 19.03Z" fill="#183B56"/>
<path d="M109.107 7.71606C109.858 8.1421 109.858 8.37879 109.06 9.65691C108.309 10.8404 108.168 10.935 107.323 10.509C106.712 10.1776 105.679 9.8936 104.881 9.8936C102.298 9.8936 100.608 11.5978 100.608 14.2014C100.608 16.8996 102.298 18.6985 104.881 18.6985C105.773 18.6985 106.9 18.3671 107.604 17.941C108.356 17.515 108.496 17.515 109.295 18.6985C109.999 19.7872 109.999 20.0239 109.342 20.4973C108.215 21.302 106.383 21.9174 104.787 21.9174C100.045 21.9174 96.8516 18.8405 96.8516 14.2487C96.8516 9.65691 100.045 6.62728 104.834 6.62728C106.337 6.57994 108.027 7.05332 109.107 7.71606Z" fill="#183B56"/>
<path d="M124.649 19.8346C125.26 20.592 125.025 20.876 123.522 21.3967C122.02 21.9648 121.785 21.9174 121.269 21.2074L116.996 15.4795L115.071 17.3256V21.0653C115.071 21.3494 114.742 21.6807 114.319 21.6807H112.253C111.784 21.6807 111.502 21.3494 111.502 21.0653V1.4201C111.502 0.426 111.784 0.378662 113.286 0.378662C115.024 0.378662 115.071 0.520676 115.071 1.4201V12.5918L120.893 6.95863C121.55 6.34324 121.879 6.39058 123.053 7.14799C124.321 7.95273 124.415 8.18942 123.804 8.80481L119.484 13.0652L124.649 19.8346Z" fill="#183B56"/>
</svg>
