<svg width="95" height="28" viewBox="0 0 95 28" fill="none" xmlns="http://www.w3.org/2000/svg">
<path d="M16.9093 2.37613C16.5333 1.1447 15.217 0.481626 13.9947 0.860526C12.7724 1.23943 12.1143 2.56558 12.4904 3.797L18.5077 22.4578C18.9308 23.5945 20.1531 24.2576 21.3283 23.9261C22.5506 23.5472 23.3028 22.2684 22.9267 21.0369C22.9267 20.9896 16.9093 2.37613 16.9093 2.37613Z" fill="#FAAD13"/>
<path d="M7.59488 5.45474C7.2188 4.22331 5.90251 3.56024 4.68023 3.93914C3.45796 4.31804 2.79981 5.64419 3.1759 6.87561L9.19324 25.5364C9.61633 26.6731 10.8386 27.3362 12.0139 27.0047C13.2361 26.6258 13.9883 25.347 13.6122 24.1156C13.6122 24.0682 7.59488 5.45474 7.59488 5.45474Z" fill="#36B37E"/>
<path d="M24.5255 17.8636C25.7478 17.4847 26.4059 16.1586 26.0299 14.9272C25.6538 13.6957 24.3375 13.0327 23.1152 13.4116L4.54607 19.4266C3.41781 19.8528 2.75967 21.0843 3.08874 22.2683C3.46482 23.4998 4.73411 24.2576 5.95638 23.8787C6.0504 23.8787 24.5255 17.8636 24.5255 17.8636Z" fill="#D81F26"/>
<path opacity="0.2" d="M8.4085 23.1207C9.63077 22.7419 11.1821 22.2209 12.8275 21.6525C12.4514 20.4211 11.9343 18.8581 11.3702 17.2004L6.95117 18.6687L8.4085 23.1207Z" fill="white"/>
<path opacity="0.2" d="M17.764 20.0426C19.4563 19.4743 21.0077 19.0007 22.183 18.5744C21.8069 17.343 21.2898 15.78 20.7256 14.1223L16.3066 15.5906L17.764 20.0426Z" fill="white"/>
<path d="M21.4746 8.43858C22.6969 8.05968 23.355 6.73353 22.9789 5.5021C22.6029 4.27068 21.2866 3.6076 20.0643 3.9865L1.54216 10.0489C0.413908 10.4752 -0.244239 11.7066 0.0848344 12.8906C0.460918 14.1694 1.7302 14.9272 2.95247 14.501C2.99948 14.501 21.4746 8.43858 21.4746 8.43858Z" fill="#00B8D9"/>
<path opacity="0.2" d="M5.39873 13.6957C6.621 13.3168 8.17235 12.7958 9.81772 12.2275C9.25359 10.5224 8.78349 8.95945 8.36039 7.77539L3.94141 9.24363L5.39873 13.6957Z" fill="white"/>
<path opacity="0.2" d="M14.7132 10.6647C16.4056 10.0963 17.9569 9.62272 19.1322 9.19646C18.568 7.49141 18.0979 5.92845 17.6748 4.74438L13.2559 6.21262L14.7132 10.6647Z" fill="white"/>
<path d="M43.2949 7.30198C44.0941 7.68088 44.1881 7.91769 43.53 9.14912C42.8718 10.4279 42.7308 10.4753 41.8846 10.1437C40.8504 9.71747 39.5811 9.38593 38.7349 9.38593C37.3716 9.38593 36.4784 9.85956 36.4784 10.6174C36.4784 13.0802 44.3292 11.7541 44.3292 17.0587C44.3292 19.711 42.0727 21.4634 38.6879 21.4634C36.9015 21.4634 34.692 20.8477 33.1877 20.0899C32.4355 19.711 32.3885 19.4741 33.0466 18.1954C33.6108 17.106 33.7988 16.9639 34.598 17.2955C35.9143 17.8638 37.5126 18.2901 38.6409 18.2901C39.9102 18.2901 40.7093 17.7691 40.7093 17.0113C40.7093 14.5958 32.7176 15.7325 32.7176 10.6174C32.7176 7.91769 34.9741 6.07056 38.3118 6.07056C39.9102 6.21264 41.9316 6.68627 43.2949 7.30198Z" fill="#183B56"/>
<path d="M49.6412 1.04992V20.7527C49.6412 21.0369 49.3121 21.3684 48.889 21.3684H46.8205C46.3504 21.3684 46.0684 21.0369 46.0684 20.7527V1.04992C46.0684 0.0553046 46.3504 0.0079422 47.8548 0.0079422C49.5471 -0.0394203 49.6412 0.102667 49.6412 1.04992Z" fill="#183B56"/>
<path fill-rule="evenodd" clip-rule="evenodd" d="M64.1914 20.5635V12.0856C64.1914 8.39132 61.6999 6.21265 57.751 6.21265C55.9646 6.21265 53.9901 6.781 52.5798 7.72825C51.8277 8.20187 51.8277 8.43868 52.5798 9.62275C53.379 10.8068 53.52 10.8542 54.2722 10.4279C55.2124 9.85956 56.3877 9.48066 57.3749 9.48066C59.4434 9.48066 60.6656 10.4279 60.6656 11.9909V12.9855C59.6784 12.5592 58.4561 12.3224 57.1398 12.3224C53.6141 12.3224 51.3105 14.2169 51.3105 17.0587C51.3105 19.711 53.379 21.5107 56.4347 21.5107C58.033 21.5107 59.6314 20.8477 60.7126 19.6162L60.6656 20.5161C60.6186 20.9897 60.9477 21.3213 61.4178 21.3213H63.4393C63.8623 21.3213 64.1914 21.0371 64.1914 20.5635ZM56.8616 18.669C55.5923 18.669 54.7461 18.0059 54.7461 17.0113C54.7461 15.7798 56.0154 14.8326 57.8958 14.8326C58.789 14.8326 59.8232 14.9747 60.6224 15.3062V16.6324C59.8232 17.9112 58.4129 18.669 56.8616 18.669Z" fill="#183B56"/>
<path d="M78.1643 7.34919C78.9164 7.77545 78.9164 8.01226 78.1173 9.29105C77.3651 10.4751 77.2241 10.5698 76.3779 10.1436C75.7667 9.81204 74.7325 9.52786 73.9333 9.52786C71.3477 9.52786 69.6554 11.2329 69.6554 13.8379C69.6554 16.5375 71.3477 18.3373 73.9333 18.3373C74.8265 18.3373 75.9548 18.0057 76.6599 17.5795C77.4121 17.1532 77.5531 17.1532 78.3523 18.3373C79.0575 19.4266 79.0575 19.6634 78.3993 20.1371C77.2711 20.9422 75.4377 21.5579 73.8393 21.5579C69.0912 21.5579 65.8945 18.4794 65.8945 13.8852C65.8945 9.29105 69.0912 6.25985 73.8863 6.25985C75.3906 6.21249 77.083 6.68612 78.1643 7.34919Z" fill="#183B56"/>
<path d="M93.7254 19.4738C94.3366 20.2316 94.1015 20.5158 92.5972 21.0368C91.0928 21.6051 90.8578 21.5577 90.3407 20.8473L86.0627 15.1164L84.1353 16.9636V20.7052C84.1353 20.9894 83.8062 21.3209 83.3831 21.3209H81.3147C80.8446 21.3209 80.5625 20.9894 80.5625 20.7052V1.04979C80.5625 0.055175 80.8446 0.0078125 82.3489 0.0078125C84.0883 0.0078125 84.1353 0.1499 84.1353 1.04979V12.2273L89.9646 6.5912C90.6227 5.97549 90.9518 6.02285 92.1271 6.78065C93.3964 7.58581 93.4904 7.82262 92.8792 8.43833L88.5543 12.701L93.7254 19.4738Z" fill="#183B56"/>
</svg>
