<svg width="143" height="42" viewBox="0 0 143 42" fill="none" xmlns="http://www.w3.org/2000/svg">
<path d="M25.5993 3.59835C25.0301 1.73353 23.0381 0.729388 21.1884 1.30318C19.3386 1.87697 18.3426 3.88525 18.9117 5.75008L28.0182 34.0094C28.6585 35.7308 30.5083 36.7349 32.2869 36.2328C34.1366 35.659 35.2749 33.7225 34.7058 31.8577C34.7058 31.7859 25.5993 3.59835 25.5993 3.59835Z" fill="#FAAD13"/>
<path d="M11.5134 8.26046C10.9442 6.39564 8.95217 5.3915 7.10242 5.96529C5.25267 6.53908 4.25665 8.54736 4.8258 10.4122L13.9323 38.6715C14.5726 40.3929 16.4223 41.397 18.2009 40.8949C20.0507 40.3212 21.189 38.3846 20.6198 36.5198C20.6198 36.448 11.5134 8.26046 11.5134 8.26046Z" fill="#36B37E"/>
<path d="M37.1229 27.0521C38.9727 26.4783 39.9687 24.47 39.3995 22.6052C38.8304 20.7404 36.8383 19.7362 34.9886 20.31L6.88659 29.419C5.17913 30.0645 4.18311 31.9293 4.68112 33.7224C5.25027 35.5873 7.17117 36.7348 9.02092 36.1611C9.16321 36.1611 37.1229 27.0521 37.1229 27.0521Z" fill="#D81F26"/>
<path opacity="0.2" d="M12.7211 35.0134C14.5708 34.4396 16.9186 33.6506 19.4087 32.7899C18.8395 30.9251 18.0569 28.5582 17.2032 26.0479L10.5156 28.2713L12.7211 35.0134Z" fill="white"/>
<path opacity="0.2" d="M26.8793 30.3515C29.4405 29.4908 31.7883 28.7736 33.5669 28.1281C32.9977 26.2632 32.2151 23.8963 31.3614 21.386L24.6738 23.6094L26.8793 30.3515Z" fill="white"/>
<path d="M32.499 12.7791C34.3488 12.2053 35.3448 10.1971 34.7757 8.33224C34.2065 6.46741 32.2145 5.46328 30.3647 6.03707L2.33386 15.2178C0.626396 15.8633 -0.369624 17.7281 0.128386 19.5212C0.69754 21.4578 2.61844 22.6053 4.46819 21.9598C4.53933 21.9598 32.499 12.7791 32.499 12.7791Z" fill="#00B8D9"/>
<path opacity="0.2" d="M8.16836 20.7404C10.0181 20.1666 12.3659 19.3777 14.8559 18.517C14.0022 15.9349 13.2908 13.568 12.6505 11.7749L5.96289 13.9984L8.16836 20.7404Z" fill="white"/>
<path opacity="0.2" d="M22.2543 16.1498C24.8155 15.2892 27.1633 14.5719 28.9419 13.9264C28.0881 11.3443 27.3767 8.97743 26.7364 7.18433L20.0488 9.40777L22.2543 16.1498Z" fill="white"/>
<path d="M65.5094 11.0575C66.7189 11.6312 66.8611 11.9899 65.8651 13.8547C64.8691 15.7912 64.6557 15.863 63.3751 15.3609C61.8099 14.7154 59.889 14.2133 58.6084 14.2133C56.5452 14.2133 55.1935 14.9306 55.1935 16.0781C55.1935 19.8078 67.0746 17.7995 67.0746 25.8326C67.0746 29.8492 63.6596 32.503 58.5373 32.503C55.8338 32.503 52.49 31.5706 50.2134 30.423C49.0751 29.8492 49.0039 29.4906 49.9999 27.554C50.8537 25.9044 51.1383 25.6892 52.3477 26.1912C54.3397 27.0519 56.7587 27.6975 58.4661 27.6975C60.387 27.6975 61.5965 26.9085 61.5965 25.7609C61.5965 22.103 49.5019 23.8244 49.5019 16.0781C49.5019 11.9899 52.9169 9.19263 57.9681 9.19263C60.387 9.4078 63.4462 10.125 65.5094 11.0575Z" fill="#183B56"/>
<path d="M75.114 1.58996V31.4272C75.114 31.8575 74.616 32.3596 73.9757 32.3596H70.8453C70.1339 32.3596 69.707 31.8575 69.707 31.4272V1.58996C69.707 0.0837516 70.1339 0.0120274 72.4105 0.0120274C74.9717 -0.0596967 75.114 0.155476 75.114 1.58996Z" fill="#183B56"/>
<path fill-rule="evenodd" clip-rule="evenodd" d="M97.1693 31.1404V18.3018C97.1693 12.7073 93.3987 9.40796 87.4225 9.40796C84.7191 9.40796 81.731 10.2686 79.5967 11.7031C78.4584 12.4204 78.4584 12.779 79.5967 14.5721C80.8061 16.3652 81.0196 16.4369 82.1579 15.7914C83.5808 14.9307 85.3594 14.3569 86.8534 14.3569C89.9837 14.3569 91.8335 15.7914 91.8335 18.1583V19.6645C90.3395 19.019 88.4897 18.6604 86.4977 18.6604C81.1619 18.6604 77.6758 21.5293 77.6758 25.8328C77.6758 29.8493 80.8061 32.5749 85.4305 32.5749C87.8494 32.5749 90.2683 31.5707 91.9046 29.7059L91.8335 31.0686C91.7623 31.7859 92.2604 32.288 92.9718 32.288H96.031C96.6713 32.288 97.1693 31.8576 97.1693 31.1404ZM86.0706 28.2713C84.1497 28.2713 82.8691 27.2672 82.8691 25.761C82.8691 23.8962 84.79 22.4617 87.6358 22.4617C88.9875 22.4617 90.5527 22.6768 91.7622 23.1789V25.1872C90.5527 27.1237 88.4184 28.2713 86.0706 28.2713Z" fill="#183B56"/>
<path d="M118.299 11.1292C119.437 11.7747 119.437 12.1333 118.228 14.0699C117.09 15.863 116.876 16.0064 115.596 15.3609C114.671 14.8589 113.106 14.4285 111.896 14.4285C107.983 14.4285 105.422 17.0106 105.422 20.9554C105.422 25.0437 107.983 27.7692 111.896 27.7692C113.248 27.7692 114.955 27.2671 116.023 26.6216C117.161 25.9761 117.374 25.9761 118.584 27.7692C119.651 29.4189 119.651 29.7775 118.655 30.4947C116.947 31.714 114.173 32.6464 111.754 32.6464C104.568 32.6464 99.7305 27.9844 99.7305 21.0271C99.7305 14.0699 104.568 9.47955 111.825 9.47955C114.102 9.40782 116.663 10.1251 118.299 11.1292Z" fill="#183B56"/>
<path d="M141.848 29.4906C142.773 30.6382 142.417 31.0685 140.141 31.8575C137.864 32.7182 137.508 32.6464 136.726 31.5706L130.252 22.892L127.335 25.6892V31.3554C127.335 31.7858 126.837 32.2878 126.196 32.2878H123.066C122.355 32.2878 121.928 31.7858 121.928 31.3554V1.58989C121.928 0.0836869 122.355 0.0119629 124.631 0.0119629C127.264 0.0119629 127.335 0.227135 127.335 1.58989V18.5168L136.157 9.98162C137.153 9.0492 137.651 9.12093 139.429 10.2685C141.35 11.4878 141.492 11.8464 140.568 12.7789L134.022 19.234L141.848 29.4906Z" fill="#183B56"/>
</svg>
